<?xml version="1.0"?>
<svg width="1024" height="1024" xmlns="http://www.w3.org/2000/svg" xmlns:svg="http://www.w3.org/2000/svg" enable-background="new 0 0 1024 1024" version="1.1" xml:space="preserve">
 <g class="layer">
  <title>Layer 1</title>
  <g id="svg_155">
   <path d="m918.58,266.93c2.89,5.84 4.66,12.61 8.9,17.37c19.1,21.41 33.27,45.62 45.67,70.8c7.27,14.74 14.35,29.75 19.35,45.28c7.85,24.45 13.93,49.39 20.65,74.15c10.03,36.95 9.66,74.74 8.36,112.36c-0.86,24.7 -3.31,49.44 -11.15,73.47c-8.15,25.03 -13.9,50.76 -22.35,75.69c-4.68,13.76 -12.3,26.73 -19.45,39.62c-7.19,12.91 -15.34,25.35 -23.28,37.87c-1.93,3.04 -4.64,5.64 -8.01,9c-3.47,0.63 -5.92,0.72 -8.92,0.58c-2.49,-1.35 -4.45,-2.47 -6.59,-4.24c-3.14,-1.24 -6.1,-2.34 -9.06,-2.34c-29.94,-0.13 -59.87,-0.07 -89.81,-0.1c-2.96,0 -5.94,-0.32 -8.85,-0.47c1.77,-4.54 3.12,-8.01 4.57,-11.84c0.39,-0.83 0.82,-1.07 2.03,-1.1c2.52,-1.95 4.75,-3.67 6.2,-5.86c10.69,-15.83 10.66,-33.71 8.64,-51.23c-0.88,-7.53 -7.06,-14.51 -10.99,-21.84c-0.16,-0.12 -0.4,-0.42 0,-0.97c-1.82,-3.21 -4.03,-5.86 -6.73,-8.68c-1.82,-1.64 -3.17,-3.12 -4.56,-5.16c-1.24,-1.39 -2.42,-2.17 -3.54,-2.99c0.05,0 0.04,0.12 -0.02,-0.45c-1.21,-1.34 -2.38,-2.1 -3.49,-2.89c0.07,0 0.04,0.12 -0.04,-0.48c-1.79,-1.34 -3.54,-2.09 -5.21,-2.84c0.05,-0.02 0.02,0.1 -0.05,-0.52c-1.44,-0.92 -2.79,-1.22 -4.29,-1.62c-0.14,-0.13 -0.37,-0.42 -0.18,-0.99c-6.5,-4.41 -12.65,-8.6 -15.09,-16.36c-0.51,-1.64 -3.28,-2.6 -4.94,-3.91c0.05,-0.02 0.02,0.1 0.05,-0.5c-0.86,-1.52 -1.75,-2.42 -2.77,-3.44c-0.14,-0.12 -0.39,-0.38 0,-0.95c-2.37,-4.29 -5.12,-8.03 -7.8,-11.81c0.05,-0.02 0.02,0.1 0.05,-0.5c-1.19,-1.9 -2.4,-3.19 -3.56,-4.51c0.07,-0.02 0.02,0.1 0.05,-0.52c-1.23,-1.92 -2.49,-3.22 -4.19,-4.66c-1.24,-1.09 -2.02,-2.02 -2.79,-3.59c-1.81,-2.5 -3.61,-4.37 -5.35,-6.26c0.05,-0.02 0.02,0.1 0.05,-0.52c-1.23,-1.92 -2.49,-3.22 -4.19,-4.66c-1.24,-1.09 -2.02,-2.02 -2.79,-3.59c-1.26,-1.95 -2.51,-3.29 -4.26,-4.79c-1.82,-1.64 -3.17,-3.12 -4.5,-5.23c-1.84,-2.52 -3.68,-4.41 -6.05,-6.5c-8.27,-7.78 -16.02,-15.34 -23.64,-23.58c3.03,-1.97 5.85,-4.17 8.89,-4.46c10.29,-0.99 20.75,-0.65 30.97,-2.02c9.78,-1.32 20.38,-1.84 27.22,-10.84c0.11,-0.15 0.42,-0.38 1.02,0c6.82,-1.25 13.69,-1.92 16.02,-9.65c0.39,-0.83 0.82,-1.07 2.07,-1.05c2.65,-1.75 4.63,-3.51 6.7,-5.63c0.39,-0.83 0.82,-1.07 2.09,-1.05c2.07,-1.75 3.45,-3.51 5.01,-5.73c1.72,-1.74 3.28,-3.02 5.47,-4.34c2.61,-2.84 4.59,-5.63 6.57,-8.37c0.02,0.05 -0.11,0.02 0.53,-0.05c1.44,-1.75 2.23,-3.46 3.12,-5.51c0.39,-0.83 0.82,-1.07 2.03,-1.12c2.03,-2.86 3.44,-5.63 4.84,-8.35c0.02,0.05 -0.11,0.02 0.53,-0.03c2,-2.84 3.35,-5.61 4.73,-8.32c0.02,0.05 -0.11,0.02 0.58,-0.07c0.98,-1.92 1.26,-3.76 1.67,-5.74c0.12,-0.13 0.44,-0.35 1.03,-0.17c1.05,-0.13 1.68,-0.37 1.93,-0.78c16.81,-30.26 25.29,-62.33 22.73,-96.68c-0.39,-5.04 -2.3,-9.97 -4.08,-15.24c-7.17,-13.06 -12.34,-26.77 -20.72,-38.35c-9.73,-13.44 -23.52,-23.13 -41.8,-25.8c-3.17,-1.24 -6.15,-2.34 -9.13,-2.35c-32.7,-0.12 -65.43,-0.63 -98.11,0.27c-9.74,0.28 -19.61,4.04 -28.95,7.4c-6.54,2.34 -12.29,6.68 -18.46,10.15c-6.63,-18.37 -6.22,-36.88 -6.57,-55.47c-0.49,-25.48 -1.54,-50.96 -3.75,-76.34c-0.65,-7.45 -6.05,-14.53 -9.41,-21.89c-0.16,-0.1 -0.4,-0.37 -0.04,-0.88c-0.61,-1.5 -1.59,-2.49 -2.52,-3.51c0.07,-0.03 0.02,0.1 0.04,-0.52c-0.86,-1.5 -1.74,-2.4 -2.77,-3.41c-0.14,-0.12 -0.37,-0.4 0,-0.92c-0.61,-1.5 -1.59,-2.49 -2.52,-3.51c0.07,-0.03 0.02,0.1 0.04,-0.52c-1.21,-1.92 -2.44,-3.21 -4.14,-4.64c-1.26,-1.1 -2.05,-2.05 -2.84,-3.66c-0.75,-5.61 -2.05,-10.09 -8.82,-9.55c0.05,-0.02 0,0.1 -0.04,-0.52c-2.4,-1.9 -4.77,-3.21 -7.59,-4.64c-1.26,-1.1 -2.05,-2.05 -2.89,-3.64c-2.02,-1.5 -3.98,-2.37 -6.1,-3.34c-0.14,-0.12 -0.37,-0.38 -0.19,-0.95c-1.31,-1.02 -2.8,-1.45 -4.22,-1.92c0.07,-0.03 0,0.08 -0.05,-0.53c-2.59,-1.45 -5.12,-2.3 -7.8,-3.27c-0.16,-0.12 -0.4,-0.42 -0.21,-0.99c-3.24,-1.69 -6.68,-2.81 -10.27,-4.02c-0.12,-0.12 -0.33,-0.42 -0.21,-1c-15.56,-8.11 -32.37,-11.44 -49.74,-11.84c-9.32,-0.22 -18.67,0.8 -28.64,1.57c-15.09,4.01 -29.85,6.85 -43.92,11.59c-33.21,11.2 -58.85,32.49 -80.24,58.49c-3.52,4.27 -6.57,5.11 -11.36,5.09c-34.74,-0.08 -69.48,0.02 -104.21,-0.08c-16,-0.03 -27.39,13.56 -17.68,28.74c3.91,6.09 8.75,11.92 14.2,16.8c18.44,16.48 37.26,32.56 56.1,48.61c13.53,11.54 27.46,22.62 40.92,34.21c4.42,3.79 9.96,8.01 11.43,12.99c4.07,13.76 6.03,28.07 9.24,42.06c4.54,19.8 9.06,39.62 14.34,59.26c5.84,21.71 13.67,42.96 18.56,64.84c6.75,30.19 26.78,49.56 52.91,64.89c12.23,7.18 27.43,7.9 38.63,18.1c13.5,12.29 26.36,24.76 36.44,39.51c-9.66,7.56 -18.07,15.65 -27.92,21.59c-32.86,19.84 -66.2,38.96 -99.52,58.07c-1.59,0.92 -5.98,0.03 -7.13,-1.42c-5.52,-6.96 -13.32,-10.5 -21.19,-14.83c-2.58,-2.29 -4.85,-5.03 -7.57,-5.51c-21.86,-3.97 -43.62,-4.11 -63.27,7.28c-6.92,4.01 -16.09,7.6 -16.76,18.07c-0.42,0.85 -0.86,1.1 -2.1,1.19c-1.42,1.72 -2.21,3.39 -3.03,4.99c-0.04,-0.07 0.11,-0.02 -0.53,0.03c-2.58,3.94 -4.52,7.83 -6.48,11.64c-0.02,-0.05 0.11,0 -0.53,0.05c-2.37,2.69 -4.14,5.31 -6.55,8.95c0,-13.57 0.11,-26.16 -0.02,-38.75c-0.54,-51.29 -1,-102.57 -1.93,-153.85c-0.12,-6.75 -2.45,-13.54 -4.42,-20.14c-0.61,-2.1 -3.31,-3.64 -5.22,-5.56c-0.16,-0.12 -0.39,-0.42 -0.04,-0.95c-0.61,-1.5 -1.59,-2.49 -2.51,-3.51c0.07,-0.02 0.02,0.1 0.04,-0.6c-0.53,-16.33 -1.56,-31.94 -1.51,-47.54c0.09,-21.32 1.56,-42.63 1.21,-63.93c-0.09,-6.08 -4.43,-12.09 -6.75,-18.15c0.07,-0.03 0.02,0.1 0.04,-0.53c-1.77,-1.92 -3.56,-3.19 -5.29,-4.47c0.07,-0.03 0.02,0.1 -0.05,-0.52c-4.38,-2.47 -8.62,-5.74 -13.02,-5.94c-14.55,-0.68 -29.18,-0.68 -43.75,0c-4.03,0.2 -7.9,3.64 -11.97,5.74c-0.12,0.15 -0.42,0.37 -0.98,0.03c-1.58,0.58 -2.61,1.52 -3.66,2.39c-0.04,-0.07 0.11,-0.02 -0.56,0.02c-3.19,7.26 -7.48,14.39 -7.92,21.72c-1.07,17.72 -0.49,35.55 -0.26,53.31c0.07,5.04 -1.68,6.95 -7.05,6.75c-8.45,-0.32 -16.97,-0.62 -25.34,0.15c-3.94,0.37 -7.62,3.22 -11.46,4.88c-0.02,-0.07 0.11,-0.02 -0.54,-0.03c-2,1.15 -3.35,2.32 -4.91,3.97c-1.75,1.77 -3.31,3.06 -5.52,4.42c-2.21,2.5 -4.4,4.76 -5.24,7.41c-2.21,7.06 -5.17,11 -14.53,9.78c-5.35,-0.7 -11.39,3.36 -17.25,5.41c-0.11,0.13 -0.37,0.37 -0.98,-0.02c-3.35,1.14 -6.1,2.65 -8.87,4.11c-0.02,-0.07 0.11,-0.02 -0.56,-0.03c-9.11,0.95 -14.07,5.33 -15.2,13.37c-0.04,-0.05 0.11,0 -0.53,0.03c-4.31,5.88 -8.13,11.65 -11.51,17.65c-0.35,0.63 1.88,2.59 3.03,4.52c-0.54,2.44 -1.21,4.27 -1.88,6.11c-1.07,10.92 -2.16,21.84 -3.19,32.78c-0.19,1.87 -0.21,3.74 -1.91,5.78c-2.3,-15.75 -6.2,-31.46 -6.43,-47.22c-0.26,-18.02 2.61,-36.08 4.35,-54.1c1.12,-11.54 1.81,-23.18 4.19,-34.5c3.4,-16.18 6.61,-32.66 12.69,-48.02c10.22,-25.8 21.63,-51.29 34.4,-76.04c14.49,-28.07 33.27,-53.73 54.95,-77.38c9.9,-10.79 18.91,-22.37 29.41,-32.59c10.5,-10.24 21.8,-19.9 33.76,-28.59c19.73,-14.33 40.52,-27.3 60.38,-41.48c19.4,-13.88 41.05,-23.53 62.94,-33.09c27.46,-11.99 55.68,-21.27 84.88,-28.65c38.09,-9.62 76.36,-16.1 115.94,-14.56c16.62,0.63 33.39,-1.02 49.9,0.37c24.15,2.02 48.3,4.98 72.17,9.1c45.62,7.85 88.81,23.13 130.64,41.93c2.16,0.97 4.84,0.87 8.18,1.04c10.45,9.68 19.95,19.6 29.46,29.54c-5.17,4.06 -11.11,7.35 -14.9,12.16c-2.59,3.29 -4.61,10.47 -2.7,12.86c5.59,6.95 12.55,13.42 20.3,18.08c10.52,6.31 19.33,-0.53 27.83,-7.18c2.33,3.22 4.19,5.93 6.22,8.52c2.07,2.6 4.29,5.09 6.47,7.61c7.01,8.11 13.41,8.5 22.33,0.99c1.49,-4.54 3.4,-4.09 6.17,-1.49c4.26,4.01 8.99,7.58 13.02,11.77c13.76,14.36 31.25,25.85 38.24,45.43c0.68,1.9 3.4,3.14 5.1,4.66c-0.05,0 0,-0.1 0,-0.1m-220.83,-117.63c-7.01,6.18 -14.02,12.34 -21,18.53c-5.14,4.58 -4.91,9.32 0.07,13.34c6.1,4.94 11.97,10.14 17.72,15.43c3.45,3.19 6.77,5.58 11.2,1.75c7.52,-6.5 15.23,-12.82 22.22,-19.8c1.74,-1.74 2.51,-7 1.16,-8.38c-6.96,-7.18 -14.56,-13.83 -22.4,-20.15c-1.82,-1.49 -5.33,-1.07 -8.97,-0.72m-477.06,153.52c-4.28,-3.46 -8.36,-3.31 -12.3,0.53c-3.4,3.32 -7.05,6.45 -10.2,9.95c-2.91,3.26 -6.85,6.91 -1.84,11.25c5.73,4.98 11.78,9.58 17.47,14.16c6.33,-4.46 12.22,-8.45 17.93,-12.69c5.85,-4.34 6.55,-8.58 -0.16,-13.17c-3.72,-2.54 -6.68,-6.06 -10.9,-10.04m616.34,330.01c4.63,5.51 8.99,7.03 12.95,-0.63c0.49,-0.95 1.58,-1.62 2.4,-2.42c3.86,-3.77 11.34,-8.17 10.76,-11.15c-0.95,-4.88 -7.12,-8.87 -11.13,-13.17c-1.35,-1.45 -2.73,-3.66 -4.38,-3.91c-2.77,-0.45 -6.43,-0.52 -8.54,0.88c-4.71,3.14 -8.47,7.55 -13.04,10.92c-5.19,3.84 -4.57,7.13 0.02,10.7c3.37,2.62 6.7,5.29 10.95,8.78z" fill="#FEF4B3" id="svg_2" opacity="1"/>
   <path d="m585.4,153.81c0.81,0.95 1.59,1.9 3.1,3.51c2.93,2.04 5.15,3.41 7.38,4.76c0,0 0.05,-0.12 0.07,0.48c2.93,3.61 5.84,6.61 8.73,9.62c0.81,0.95 1.59,1.9 2.96,3.54c1.72,2.04 2.87,3.37 4.01,4.73c0,0 0.05,-0.13 0.07,0.38c0.68,1.52 1.38,2.54 2.07,3.54c0,0 0.23,0.28 0.65,0.8c1.1,1.55 1.79,2.59 2.47,3.62c0,0 0.05,-0.13 0.07,0.38c0.68,1.52 1.38,2.54 2.07,3.54c0,0 0.25,0.27 0.72,0.88c8.66,21.16 9.76,42.56 9.59,64.25c-0.26,33.04 -1.44,66.21 8.03,99.83c4.24,-4.26 7.75,-8.3 11.81,-11.75c10.24,-8.73 23.12,-14.53 36.02,-14.86c36.24,-0.95 72.54,0.42 108.8,0.88c18.1,2.04 31.9,11.72 41.63,25.16c8.38,11.59 13.55,25.3 20.8,39.11c0.67,4.07 0.02,7.28 0.79,10.15c5.7,20.99 -0.49,41.16 -5.68,61.01c-3.65,13.96 -10.8,27.1 -16.37,40.61c0,0 -0.32,0.22 -0.89,0.67c-1.02,2.14 -1.45,3.82 -1.89,5.51c0,0 0.12,0.03 -0.46,0.2c-1.98,2.82 -3.4,5.48 -4.8,8.15c0,0 0.12,0.03 -0.46,0.2c-2.02,2.84 -3.47,5.51 -4.91,8.18c-0.58,0 -1.02,0.23 -1.95,1.3c-1.49,2.19 -2.35,3.76 -3.21,5.34c0,0 0.12,0.03 -0.44,0.18c-2.61,2.84 -4.64,5.53 -6.68,8.2c-1.54,1.29 -3.1,2.57 -5.38,4.56c-2.21,2.3 -3.68,3.89 -5.14,5.46c-0.58,0 -1.02,0.23 -2,1.2c-2.72,2.14 -4.73,3.81 -6.77,5.48c-0.58,0 -1.02,0.23 -2.03,1.2c-5.82,3.37 -10.9,6.26 -15.98,9.13c0,0 -0.32,0.23 -0.95,0.68c-21.28,8.22 -42.52,12.44 -64.83,10.75c-3.26,-0.25 -6.55,-0.03 -9.85,-0.03c-0.09,0.57 -0.19,1.12 -0.3,1.69c2.77,1.75 5.54,3.51 8.31,5.26c7.75,7.58 15.49,15.14 23.89,23.48c2.4,2.72 4.15,4.64 5.91,6.58c1.35,1.47 2.7,2.96 4.64,5.14c1.79,2.12 2.96,3.49 4.12,4.88c0.79,0.94 1.56,1.87 2.93,3.51c1.74,2.04 2.89,3.39 4.03,4.73c0,0 0.04,-0.12 0.07,0.48c1.75,2.52 3.51,4.42 5.24,6.31c0.79,0.94 1.56,1.87 2.93,3.51c1.74,2.04 2.89,3.39 4.03,4.73c0,0 0.05,-0.12 0.19,0.4c1.19,1.89 2.26,3.26 3.31,4.61c0,0 0.04,-0.12 0.07,0.5c2.45,4.32 4.89,8.05 7.33,11.77c0,0 0.25,0.27 0.65,0.78c1.1,1.57 1.79,2.6 2.47,3.64c0,0 0.04,-0.12 0.07,0.52c4.21,9.33 6.92,19.4 19.75,20.22c0,0 0.23,0.28 0.65,0.8c1.65,0.97 2.87,1.4 4.08,1.85c0,0 0.04,-0.12 0.19,0.4c1.79,1.34 3.42,2.14 5.07,2.94c0,0 0.04,-0.12 0.05,0.47c1.16,1.35 2.3,2.12 3.45,2.87c0,0 0.02,-0.12 0.05,0.47c1.17,1.4 2.33,2.19 3.49,2.97c1.35,1.47 2.7,2.96 4.64,5.18c2.49,3.37 4.35,6.01 6.2,8.65c0,0 0.25,0.3 0.72,0.88c10.01,16.81 12.65,34.2 7.48,51.96c-2.68,9.22 -8.1,17.72 -12.29,26.53c-0.58,0 -1.02,0.23 -1.96,1.32c-5.89,5.23 -11.15,9.85 -17.16,15.13c40.68,0 80.87,0 121.04,0c1.96,1.14 3.93,2.25 6.68,4.12c6.71,5.78 3.24,10.14 -1.37,12.57c-4.28,2.27 -9.73,3.47 -14.69,3.49c-281.76,0.15 -563.53,0.13 -845.29,0.05c-4.22,0 -8.47,-1.12 -12.69,-1.74c-1.19,-2.89 -4.15,-7.58 -3.24,-8.42c5.01,-4.58 10.95,-8.23 16.53,-12.16c-1.82,-3.21 -4.77,-8.35 -7.89,-13.83c-20.45,-0.85 -44.82,-27.72 -44.62,-48.06c0.65,-68.23 -0.72,-136.47 -1.44,-205.46c0.53,-2.62 1.19,-4.46 1.86,-7.55c3.01,-8.01 5.99,-14.78 8.99,-21.56c0,0 -0.14,-0.05 0.44,-0.22c5.49,-4.47 10.41,-8.8 15.32,-13.14c0,0 -0.12,-0.05 0.53,-0.07c3.38,-1.22 6.12,-2.42 8.85,-3.64c0,0 0.26,-0.23 0.95,-0.7c10.87,-1.4 21.03,-2.35 30.09,-3.21c2.4,-6.6 4.7,-12.86 6.99,-19.14c1.56,-1.3 3.12,-2.59 5.45,-4.47c2.17,-1.65 3.58,-2.74 4.98,-3.84c0,0 -0.12,-0.05 0.65,-0.05c15.9,-0.88 31.02,-1.75 46.52,-2.65c0,-19.55 -0.54,-38.94 0.25,-58.27c0.35,-8.67 3.38,-17.23 5.19,-25.85c0,0 -0.14,-0.05 0.4,-0.05c1.58,-0.67 2.65,-1.32 3.72,-1.99c0,0 0.3,-0.22 0.98,-0.7c6.05,-1.12 11.46,-2.52 16.77,-2.2c17.16,1.02 34.76,-3.52 51.48,3.36c0,0 0.05,-0.13 0.23,0.42c1.79,1.9 3.4,3.24 5.03,4.59c0,0 0.05,-0.13 0.07,0.57c1.19,6.48 3.31,12.27 3.37,18.08c0.32,34.08 0.07,68.18 0.3,102.25c0.04,3.11 2.14,6.21 3.28,9.32c0,0 0.05,-0.12 0.05,0.38c0.7,1.52 1.38,2.54 2.09,3.56c0,0 0.23,0.3 0.72,0.9c6.08,12.51 7.9,24.98 7.85,38c-0.25,56.72 -0.61,113.46 0.16,170.18c0.28,20.92 -3.08,40.11 -16.14,57.24c0.04,0.02 0.02,-0.07 -0.53,0.15c-1.96,2.32 -3.38,4.42 -4.73,6.55c0.07,0.03 0.02,-0.1 -0.56,-0.02c-2.56,1.72 -4.54,3.36 -6.45,5.04c0.07,0.02 0.02,-0.1 -0.61,0.18c-3.54,0.95 -6.45,1.64 -8.83,2.19c-2.14,5.66 -4.17,10.99 -5.63,16.75c26.59,0.58 52.63,0.77 78.68,0.85c1.02,0 2.05,-0.85 3.63,-1.57c-3.28,-3.59 -7.13,-6.91 -11.18,-10.7c-1.75,-1.75 -3.31,-3.06 -5,-4.91c-1.26,-1.9 -2.42,-3.27 -3.68,-5.01c-0.4,-0.85 -0.86,-1.1 -1.58,-1.72c-8.04,-13.96 -12.13,-28.2 -10.55,-43.56c0.72,-7 2.37,-13.89 3.59,-20.82c0,0 -0.12,-0.05 0.46,-0.23c2.58,-3.92 4.57,-7.7 6.55,-11.45c0,0 -0.14,-0.05 0.42,-0.2c1.44,-1.72 2.3,-3.27 3.15,-4.84c0.6,-0.02 1.03,-0.27 2,-1.35c24.54,-26.53 59.49,-31.81 87.14,-19.02c7.78,3.74 15.58,7.28 21.1,14.24c1.16,1.45 5.54,2.34 7.13,1.42c33.32,-19.12 66.65,-38.24 99.52,-58.07c9.85,-5.94 18.26,-14.03 27.92,-21.59c-10.08,-14.74 -22.94,-27.22 -36.44,-39.51c-11.2,-10.2 -26.4,-10.92 -38.63,-18.1c-26.13,-15.33 -46.16,-34.7 -52.91,-64.89c-4.89,-21.87 -12.72,-43.13 -18.56,-64.84c-5.28,-19.64 -9.8,-39.46 -14.34,-59.26c-3.21,-13.99 -5.17,-28.3 -9.24,-42.06c-1.47,-4.98 -7.01,-9.2 -11.43,-12.99c-13.46,-11.59 -27.39,-22.68 -40.92,-34.21c-18.84,-16.05 -37.66,-32.13 -56.1,-48.61c-5.45,-4.88 -10.29,-10.7 -14.2,-16.8c-9.71,-15.18 1.68,-28.77 17.68,-28.74c34.74,0.1 69.48,0 104.21,0.08c4.78,0.02 7.83,-0.82 11.36,-5.09c21.38,-26 47.02,-47.29 80.24,-58.49c14.07,-4.74 28.83,-7.58 44.75,-11.45c27.5,-1.2 52.77,2.86 77.43,10.72c0,0 0.21,0.3 0.67,0.87c3.56,1.75 6.66,2.96 9.74,4.14c0,0 0.25,0.3 0.72,0.85c2.84,1.5 5.19,2.49 7.54,3.46c0,0 0.07,-0.12 0.19,0.37c1.37,1.02 2.61,1.52 3.86,2.04c0,0 0.23,0.27 0.68,0.8c2.23,1.54 4.03,2.54 5.82,3.56m-106.81,652.6c0,0 0.14,-0.05 -0.04,-1.17c-1.75,-1.92 -3.49,-3.82 -5.43,-6.48c-0.3,-0.47 -0.74,-0.7 -1.58,-1.92c-2.35,-4.12 -4.71,-8.27 -8.18,-13.26c-20.12,-0.17 -40.26,0.08 -60.34,-0.72c-9.53,-0.37 -13.27,3.56 -15.23,12.04c-1.3,2.81 -2.58,5.61 -3.98,9.07c-0.26,0.37 -0.53,0.72 -1.16,1.34c0,0 -0.25,0.37 -1.07,0.94c-2.66,2.3 -5.33,4.61 -9.25,6.9c-1.96,1.17 -3.93,2.34 -5.87,4.94c2.87,0.58 5.75,1.64 8.62,1.65c32.04,0.12 64.06,0.07 96.1,0.07c7.41,0 14.83,0 24.71,0c-5.36,-3.81 -8.68,-6.16 -12.06,-8.38c0,0 0.14,-0.05 -0.26,-1.04c-1.65,-1.37 -3.29,-2.74 -4.98,-3.97m230.26,1.55c-0.51,-0.3 -0.77,-0.75 -0.75,-2.59c-3.54,-5.86 -6.43,-12.22 -10.85,-17.42c-2.66,-3.12 -7.64,-6.18 -11.67,-6.28c-24.13,-0.57 -48.3,-0.38 -72.45,-0.15c-2.8,0.03 -5.61,1.9 -9.5,3.49c-2.02,3.76 -4.03,7.53 -7.01,11.65c-0.56,1.17 -1.12,2.34 -2.58,4.22c-2.61,3.09 -5.22,6.18 -8.76,10.02c-3.42,2.89 -6.84,5.78 -9.34,9.75c1.4,0.27 2.8,0.77 4.22,0.77c45.2,0.03 90.42,0.05 135.62,-0.05c2.1,0 4.21,-1.17 6.36,-2.77c-0.02,-0.65 -0.05,-1.3 -0.54,-3.06c-2.23,-0.8 -4.45,-1.59 -7.47,-2.59c-0.51,-0.3 -0.77,-0.73 -0.89,-2.44c-1.19,-0.8 -2.38,-1.59 -4.38,-2.57m-433.64,-559.2c0,0 -0.12,0.05 0.32,1.09c4.57,3.61 9.13,7.21 13.9,11.55c0.3,0.48 0.75,0.72 1.58,1.89c1.16,0.78 2.33,1.59 3.87,3.36c2.14,1.82 4.28,3.66 6.91,6.53c2.24,1.4 4.49,2.79 7.03,5.06c1,0.75 2,1.5 3.38,3.17c1.23,1.07 2.47,2.14 3.94,3.52c0,0 0.35,0.22 0.98,1.07c3.28,2.39 6.54,4.78 9.96,7.26c0.75,-13.52 1.47,-26.5 2.45,-40.83c1.21,-5.08 2.42,-10.15 4.84,-15.88c0.77,-3.52 1.56,-7.03 2.38,-10.77c-29.67,0 -58.21,0 -89.42,0c4.64,3.67 7.5,5.91 10.66,9.03c1,0.75 2,1.5 3.49,3.31c4.56,3.59 9.13,7.16 13.74,10.64m-58.64,516.47c0,0 0.09,-0.03 1.26,-0.47c1.59,-4.58 4.59,-9.15 4.61,-13.74c0.3,-66.66 0.35,-133.31 0.11,-199.97c-0.05,-15.7 -14.49,-28.77 -31.41,-28.44c-9.64,0 -19.3,0 -29.25,0c2.58,4.01 4.45,7.01 6.45,9.95c9.15,13.42 6.22,29.09 6.4,43.26c0.75,61.21 -0.68,122.46 -2.38,184.41c-3.54,7.51 -7.08,15.01 -11.04,23.41c10.29,-0.67 20.96,-1.37 32.99,-2.22c10.48,-0.83 16.98,-7.05 22.49,-15.55c0,0 -0.28,-0.6 -0.21,-0.65m-69.51,-275.41c-11.88,-5.78 -23.98,-1.99 -36.02,-0.7c-0.25,0.02 -0.4,0.95 -1.82,2.1c-0.96,2.89 -1.91,5.79 -3.31,10.07c14.67,0 27.73,0 41.31,0c0,-3.14 0,-6.68 -0.16,-11.47m327.97,-175.94c1.72,9.77 3.44,19.52 5.03,28.6c8.9,2.82 16.86,5.33 25.97,8.42c4.24,2.17 8.47,4.34 13.14,7.4c1.09,0.72 2.16,1.45 3.61,3.17c1.67,1.35 3.31,2.72 5.28,5.23c4.52,9.13 9.06,18.27 14.3,28.7c13.64,0 27.29,0 40.87,0c0.18,-0.87 0.47,-1.44 0.37,-1.94c-0.23,-1.05 -0.7,-2.04 -0.98,-3.09c-7.94,-28.47 -26.18,-50.54 -48.81,-69.46c-13.23,-11.07 -28.25,-19.84 -47.04,-23.34c-4.85,-0.83 -9.69,-1.67 -17.05,-2.94c2.21,7.41 3.77,12.64 5.31,19.25m189.02,57.39c-1.16,0.32 -2.3,0.62 -4.54,1.4c-1.91,2.67 -3.93,5.26 -5.7,8c-15.27,23.61 -39.56,34.03 -66.32,39.76c-11.36,2.42 -23.47,1.59 -36.81,2.05c-4,0 -7.97,0 -11.62,0c-5.28,24.06 -19.4,40.31 -42.05,49.41c-16.21,6.51 -33.25,4.44 -50.04,2.27c0,0 -0.09,0.08 -0.37,-0.95c-1.07,-0.15 -2.12,-0.3 -4.28,-0.97c-29.78,-17.65 -43.52,-42.65 -38.58,-76.24c0.11,-0.72 0.26,-1.82 -0.14,-2.17c-8.94,-7.83 -17.93,-15.6 -26.92,-23.36c-0.67,0.57 -1.33,1.14 -2,1.7c2.05,9.27 3.79,18.62 6.19,27.8c7.9,30.17 16.25,60.23 23.99,90.43c4.43,17.22 9.31,34.08 23.19,48.36c15.7,14.49 33.91,22.73 56.35,22.34c28.81,-0.48 57.64,0.1 86.48,-0.18c21.21,-0.22 38.58,-9.07 54.53,-23.31c1.37,-0.94 2.96,-1.67 4.08,-2.81c18.79,-19.09 31.85,-41.48 41.08,-65.92c9.39,-24.85 12.43,-50.63 7.26,-76.54c-1.45,-7.25 -8.83,-13.42 -13.53,-20.05c0,0 0.07,-0.02 -0.26,-1.02m-73.7,-171.95c-7.17,-7.33 -14.27,-14.78 -27.41,-15.61c-8.29,1.6 -16.98,2.19 -24.8,4.96c-37.09,13.16 -56.84,39.87 -64.04,76.39c2,0.7 3.84,1.44 5.73,2c13.27,4.02 27.22,6.68 39.65,12.37c13.34,6.11 25.24,15.06 38.24,23.81c9.76,10.82 19.52,21.66 29.83,33.55c8.47,16.11 16.93,32.23 25.4,48.36c1.7,-3.37 3.17,-7.35 1.82,-10.02c-9.73,-19.17 -9.15,-40.22 -11.27,-60.43c-2.75,-26.38 -1.61,-53.1 -2.31,-79.68c-0.33,-12.39 -3.42,-24.09 -10.83,-35.7m-544.32,568.06c7.57,9.33 17.33,15.41 29.85,15.5c14.07,0.08 28.27,-0.15 42.22,-1.77c10.41,-1.22 19.33,-6.35 24.26,-17.6c1.63,-5.91 4.68,-11.84 4.71,-17.77c0.33,-64.15 0.33,-128.32 -0.02,-192.47c-0.02,-5.29 -3.19,-10.55 -5.03,-17.01c-6.43,-9.5 -15.6,-13.86 -27.45,-13.71c-14.3,0.17 -28.69,0.85 -42.91,-0.18c-15.77,-1.15 -31.65,16.2 -31.55,30.34c0.54,66.22 0.12,132.46 0.49,198.68c0.02,4.96 3.45,9.92 5.42,16m254.21,30.24c8.34,1.27 16.65,3.31 25.05,3.64c17.11,0.67 39.56,-18.93 39.29,-39.77c1.49,-9.62 -1.59,-18.23 -6.91,-26.15c-12.22,-18.22 -31.76,-23.19 -51.46,-17.05c-18.98,5.91 -26.87,20.42 -29.22,38.27c-2,15.33 8.96,34.11 23.24,41.06m-91.3,-394.08c-10.94,-0.4 -21.87,-0.6 -32.79,-1.27c-6.29,-0.38 -8.01,2.12 -7.92,7.8c0.26,19.42 0.19,38.85 0.02,58.29c-0.04,4.04 0.91,6.68 4.49,9.48c6.87,5.36 13.41,11.37 13.34,21.06c0,1.15 1.96,3.29 3.1,3.34c7.15,0.35 14.32,0.23 22.4,-0.8c0.19,-31.91 0.39,-63.83 0.49,-95.74c0,-0.5 -1.17,-1 -3.12,-2.15m362.87,356.54c0.23,-4.52 1.86,-9.48 0.47,-13.51c-12.11,-35.35 -57.96,-39.41 -77.63,-15.55c-19.33,23.44 -9.52,56.92 15.98,68.31c6.82,0.7 13.64,1.52 20.47,2.07c19.77,1.59 43.89,-20.6 40.7,-41.33m175.34,-42.09c-5.99,2.76 -12.76,4.59 -17.82,8.45c-15.3,11.6 -16.9,28.09 -13.29,44.52c3.35,15.31 13.92,27.45 30.39,30.06c25.76,4.09 45.57,-6.9 54.23,-33.55c1.74,-12.61 -0.18,-24.34 -8.4,-34.85c-8.1,-10.34 -28.57,-21.39 -45.11,-14.63m-305.07,-274.39c1.03,0.97 1.93,2.19 3.14,2.87c26.06,14.59 57.86,2.77 66.39,-25.5c3.59,-11.87 5.94,-24.85 -5.03,-36.68c-9.66,-13.29 -36.19,-22.29 -53.21,-13.88c-21.86,10.84 -31.85,24.73 -28.78,47.74c1.31,9.77 6.41,19.35 17.49,25.45m335.83,95.64c7.31,-8.25 15.88,-15.8 21.61,-24.96c6.92,-11.02 11.44,-23.41 17.63,-36.32c5.63,-13.86 9.57,-27.77 10.73,-42.96c1.44,-18.98 1.24,-37.1 -7.57,-55.72c-1.26,-2.07 -2.21,-4.42 -3.86,-6.18c-8.31,-8.8 -16.97,-17.4 -30.67,-17.47c-30.92,-0.12 -61.83,-0.05 -92.77,0c-1.95,0 -3.91,0.45 -4.49,0.52c5.66,8.47 11.02,16.48 16.14,25.85c5.89,21.67 4.52,43.58 1.65,65.39c-1.35,10.1 -4.7,19.97 -8.18,30.64c-2.07,5.28 -3.51,10.89 -6.34,15.75c-8.31,14.16 -17.18,28.02 -26.87,42.49c-7.33,8.67 -14.67,17.32 -22,25.96c-2.05,-2.05 -1.63,-1.47 -1.21,-1.49c31.43,-0.45 62.92,0.13 94.24,-1.92c15.35,-1 30.01,-7.56 41.96,-19.59m-88.46,222.53c2.12,-10.77 4.22,-21.54 6.43,-33.51c12.99,-22.37 31.37,-37.25 61.1,-37.8c-9.76,-12.41 -18.53,-23.46 -27.2,-34.56c-4.07,-5.21 -8.13,-5.56 -13.74,-1.6c-8.22,5.81 -16.72,11.42 -25.66,16.1c-26.34,13.79 -52.95,27.13 -79.52,40.54c-4.71,2.39 -12.09,3.17 -13.9,6.7c-1.63,3.22 2.98,9.08 4.29,13.93c2.59,9.62 4.82,19.32 7.36,29.65c25.94,0 53.04,0 80.83,0.57m-244.5,-412.83c2.94,-0.77 5.89,-1.54 9.24,-2.4c-1.37,-5.21 -2.66,-10.05 -3.91,-14.91c-8.22,-32.26 -8.4,-64.15 3.68,-95.78c11.5,-30.16 31.43,-53.08 62.15,-66.76c7.33,-3.27 15.37,-5.09 24.01,-7.88c-2.73,-1.24 -4.24,-2.42 -5.82,-2.54c-16.9,-1.24 -33.81,-2.29 -50.72,-3.44c-19.82,-1.35 -37.63,5.74 -54.54,13.78c-22.15,10.54 -42.71,24.29 -54.96,45.4c-8.47,14.61 -15.27,30.66 -19.37,46.85c-3.07,12.09 -1.28,25.46 -0.4,38.2c0.7,10.25 -0.25,21.77 12.37,28.89c16.37,14.18 32.74,28.34 48.36,41.84c10.11,-7.48 19.31,-14.31 29.92,-21.26m153.62,242.13c-16.91,15.53 -33.84,31.07 -49.85,45.75c9.62,20.5 19.3,41.14 29.18,62.26c5.71,-2.25 13.62,-4.54 20.66,-8.3c35.74,-19.02 71.25,-38.47 106.89,-57.66c5.61,-3.02 2.03,-5.26 -0.44,-7.4c-11.32,-9.78 -22.52,-19.72 -34.21,-29.07c-11.6,-9.28 -24.87,-14.26 -40.49,-12.41c-5.45,0.65 -11.11,0.53 -16.6,-0.02c-6.15,-0.6 -10.69,1.3 -15.16,6.83m-123.67,129.27c16.95,-23.14 40.33,-33.28 71.79,-30.44c-6.38,-13.37 -12.06,-25.3 -18.26,-38.3c-10.01,7.48 -19.02,14.54 -28.39,21.14c-31.62,22.24 -64.74,42.16 -100.15,58.52c-4.85,2.25 -6.68,5.19 -4.43,10.62c2.44,5.96 3.66,12.39 5.54,19.07c19.33,0 39.33,0 59.27,0c2.75,-22.68 4.89,-26.32 14.63,-40.61m-353.04,99.47c19.26,0 38.52,0 57.05,0c-3.08,-5.79 -5.87,-10.99 -8.94,-16.73c-16.44,0 -33.6,0.22 -50.76,-0.08c-9.34,-0.15 -18.51,-1.14 -21.03,10.75c-0.42,2.04 -2.68,3.72 -4.47,6.06c9.1,0 17.75,0 28.15,0m394.24,-222.16c5.59,6.11 11.2,12.22 17.46,19.04c12.02,-10.34 23.99,-20.62 37.3,-32.04c-23.26,0 -44.1,0 -66.11,0c3.91,4.52 7.2,8.32 11.36,13.01z" fill="#194859" id="svg_3" opacity="1"/>
   <path d="m271.97,1006.66c-56.05,-23.86 -107.23,-53.77 -153.38,-94.11c263.51,0 525.62,0 790.12,0c-10.48,8.42 -19.28,16.28 -28.94,23.04c-19.4,13.56 -38.49,27.77 -59.13,39.41c-28.71,16.16 -58.87,29.77 -90.51,40.34c-14.28,4.76 -28.55,6.61 -43.54,6.6c-114.19,-0.18 -228.37,-0.62 -342.56,0.3c-24.43,0.2 -46.32,-5.63 -68.14,-14.24c-1.09,-0.42 -2.17,-0.78 -3.93,-1.34z" fill="#D7F2ED" id="svg_4" opacity="1"/>
   <path d="m54.57,838.63c4.24,0 8.48,1.12 12.71,1.12c281.76,0.08 563.53,0.1 845.29,-0.05c4.96,-0.02 10.41,-1.22 14.69,-3.49c4.61,-2.44 8.08,-6.8 1.91,-12.34c2.19,-0.62 4.64,-0.7 7.82,-0.85c5.71,-0.02 10.67,0.07 15.63,0.12c13.09,0.12 19.38,8.9 12.93,19.92c-6.17,10.52 -14.46,19.89 -21.44,30.02c-10.2,14.83 -24.54,17.25 -42.36,17.22c-266.04,-0.53 -532.07,-0.38 -798.11,-0.25c-6.33,0.02 -10.88,-1.2 -14.72,-6.33c-11.23,-14.98 -22.89,-29.67 -34.35,-45.08z" fill="#9BECDF" id="svg_5" opacity="1"/>
   <path d="m855.64,206.97c-8.52,7.2 -14.92,6.81 -21.93,-1.3c-2.17,-2.52 -4.4,-5.01 -6.47,-7.61c-2.03,-2.59 -3.89,-5.29 -6.22,-8.52c-8.5,6.65 -17.32,13.49 -27.83,7.18c-7.75,-4.66 -14.7,-11.14 -20.3,-18.08c-1.91,-2.39 0.11,-9.57 2.7,-12.86c3.79,-4.81 9.73,-8.1 14.9,-12.16c-9.52,-9.93 -19.02,-19.85 -29.08,-30.01c-4.66,-7.45 -0.07,-11.96 4.92,-16.33c5.07,-4.44 10.5,-5.04 16.49,-1.74c6.87,3.79 13.71,7.7 20.82,11.05c1.95,0.92 5.61,0.94 7.19,-0.23c6.36,-4.69 12.22,-10 18.67,-15.43c-26.69,-23.59 -53.02,-46.85 -80.94,-71.52c11.02,-8.4 21.44,-16.76 32.46,-24.33c2,-1.37 6.77,-0.05 9.83,1.05c23.73,8.55 47.34,17.42 71.04,26.03c9.99,3.62 20,7.3 30.25,10.09c3.19,0.87 8.04,-0.02 10.73,-1.9c13.79,-9.68 26.68,-20.59 40.73,-29.89c22.43,-14.88 47.92,-8.33 58.91,15.83c6.54,14.41 1.65,29.37 -10.06,40.62c-13,12.51 -26.76,24.39 -41.08,35.52c-4.19,3.26 -4.91,5.96 -4.89,10.14c0.04,40.34 -0.47,80.68 0.33,121.01c0.23,10.89 -2.1,18.65 -12.2,24.06c-5.15,2.77 -9.87,6.26 -15.42,9.35c-0.61,-0.07 -0.67,0.03 -0.7,-0.58c-14.42,-34.43 -28.8,-68.24 -43.1,-101.87c-7.12,5.44 -14.81,10.75 -21.65,16.9c-2.07,1.84 -2.79,6.14 -2.38,9.1c0.75,5.56 2.79,10.95 4.28,16.43m-60.15,-172.97c-0.79,-0.1 -1.59,-0.18 -2.38,-0.28c0.49,0.8 0.96,1.59 2.21,3.21c17.37,16.5 34.74,32.98 52.46,49.79c9.08,-7.23 18.16,-14.48 28.13,-22.44c-27.57,-10.12 -53.81,-19.74 -80.41,-30.27m178.49,-5.26c-6.01,1.12 -13,0.75 -17.82,3.66c-9.81,5.91 -18.77,13.27 -27.53,20.62c-14.55,12.24 -28.55,25.08 -42.99,37.42c-20.31,17.37 -40.82,34.51 -61.27,51.73c-6.38,5.38 -5.01,10.09 2.44,15.06c7.17,4.94 17.77,4.07 26.04,-2.14c11.74,-8.8 23.47,-17.62 35.7,-26.8c10.81,28.97 21.21,56.77 31.58,84.57c0.61,-0.15 1.23,-0.28 1.84,-0.42c0,-2.64 0,-5.28 0,-7.9c0,-32.53 0.4,-65.07 -0.28,-97.58c-0.18,-8.82 4.15,-13.52 10.31,-18.52c12.65,-10.3 24.98,-21.02 38.52,-32.09c8.78,-9.37 10.04,-17.45 3.47,-27.62z" fill="#19495B" id="svg_6" opacity="1"/>
   <path d="m107.96,103.03c-11.08,3.89 -13.51,6.09 -17.89,15.81c-3.19,7.06 -9.22,9.68 -19.77,7.91c-7.03,-1.19 -10.25,-6.28 -10.48,-12.49c-0.26,-6.9 -3.61,-9.95 -10.36,-9.02c-8.03,1.1 -10.55,-4.21 -11.88,-9.47c-1.54,-6.09 -2.94,-14.21 4.63,-16.95c10.2,-3.69 18.18,-6.8 20.02,-19.14c1.05,-6.98 10.67,-7.75 17.07,-5.88c4.54,1.34 8.66,5.64 11.67,9.53c2.03,2.62 1.81,6.83 4.01,8.45c6.31,4.34 14.67,7.53 18.28,13.39c2.68,4.32 3.58,13.29 -5.29,17.83z" fill="#99E7DA" id="svg_7" opacity="1"/>
   <path d="m204.95,75.09c7.66,0.58 13.85,3.46 14.6,10.14c0.44,3.79 -2.49,9.93 -5.8,11.59c-4.42,2.22 -11.92,3.07 -15.76,0.83c-3.77,-2.19 -6.48,-9.07 -6.2,-13.69c0.33,-5.59 5.49,-9.45 13.16,-8.87z" fill="#D7F2ED" id="svg_8" opacity="1"/>
   <path d="m856.05,206.65c-1.89,-5.16 -3.93,-10.55 -4.68,-16.11c-0.4,-2.96 0.32,-7.26 2.38,-9.1c6.84,-6.14 14.53,-11.45 21.65,-16.9c14.3,33.63 28.67,67.44 43.15,101.89c-1.67,-0.92 -4.38,-2.15 -5.07,-4.06c-6.99,-19.59 -24.48,-31.07 -38.24,-45.43c-4.03,-4.19 -8.76,-7.76 -13.02,-11.77c-2.77,-2.6 -4.68,-3.06 -6.17,1.49z" fill="#FFFFF3" id="svg_9" opacity="1"/>
   <path d="m698.2,148.9c3.19,0.05 6.7,-0.37 8.52,1.12c7.83,6.33 15.44,12.97 22.4,20.15c1.35,1.39 0.58,6.65 -1.16,8.38c-6.99,6.98 -14.7,13.31 -22.22,19.8c-4.43,3.82 -7.75,1.44 -11.2,-1.75c-5.75,-5.29 -11.62,-10.49 -17.72,-15.43c-4.98,-4.02 -5.21,-8.77 -0.07,-13.34c6.98,-6.19 13.99,-12.36 21.45,-18.93z" fill="#FFFFF3" id="svg_10" opacity="1"/>
   <path d="m231.26,789.63c13.11,-17.1 16.47,-36.28 16.19,-57.21c-0.77,-56.72 -0.4,-113.46 -0.16,-170.18c0.05,-13.02 -1.77,-25.5 -7.69,-37.89c1.42,1.32 4.12,2.86 4.73,4.96c1.96,6.6 4.29,13.39 4.42,20.14c0.93,51.28 1.38,102.56 1.93,153.85c0.12,12.59 0.02,25.18 0.02,38.75c2.42,-3.64 4.19,-6.26 6.55,-8.95c-0.6,6.88 -2.24,13.78 -2.96,20.77c-1.58,15.36 2.51,29.6 9.94,43.5c-11.25,-9.5 -11.66,-23.14 -14.65,-38.29c-1.84,5.59 -2.45,9.45 -4.29,12.66c-3.75,6.55 -4.07,15.71 -14.02,17.88z" fill="#F6F8CA" id="svg_11" opacity="1"/>
   <path d="m221.15,303.26c3.77,3.52 6.73,7.05 10.45,9.58c6.71,4.59 6.01,8.83 0.16,13.17c-5.71,4.24 -11.6,8.23 -17.93,12.69c-5.7,-4.58 -11.74,-9.18 -17.47,-14.16c-5.01,-4.34 -1.07,-8 1.84,-11.25c3.15,-3.51 6.8,-6.63 10.2,-9.95c3.94,-3.84 8.03,-3.99 12.76,-0.08z" fill="#FFFFF3" id="svg_12" opacity="1"/>
   <path d="m836.57,632.4c-3.8,-3.07 -7.13,-5.74 -10.5,-8.37c-4.59,-3.57 -5.21,-6.86 -0.02,-10.7c4.57,-3.37 8.33,-7.78 13.04,-10.92c2.1,-1.4 5.77,-1.34 8.54,-0.88c1.65,0.25 3.03,2.45 4.38,3.91c4.01,4.31 10.18,8.3 11.13,13.17c0.58,2.99 -6.91,7.38 -10.76,11.15c-0.82,0.8 -1.91,1.47 -2.4,2.42c-3.96,7.66 -8.33,6.14 -13.41,0.22z" fill="#FDFFFE" id="svg_13" opacity="1"/>
   <path d="m793.84,331.32c-36.09,0.17 -72.38,-1.2 -108.63,-0.25c-12.9,0.33 -25.78,6.13 -36.02,14.86c-4.07,3.46 -7.57,7.5 -11.81,11.75c-9.46,-33.63 -8.29,-66.79 -8.03,-99.83c0.18,-21.69 -0.93,-43.1 -9.45,-64.15c2.91,6.75 8.31,13.83 8.96,21.27c2.21,25.38 3.26,50.86 3.75,76.34c0.35,18.58 -0.05,37.1 6.57,55.47c6.17,-3.47 11.92,-7.81 18.46,-10.15c9.34,-3.36 19.21,-7.11 28.95,-7.4c32.69,-0.9 65.41,-0.38 98.11,-0.27c2.98,0.02 5.96,1.12 9.13,2.35z" fill="#F6F8CA" id="svg_14" opacity="1"/>
   <path d="m921.77,818.88c-40,0.63 -80.18,0.63 -120.86,0.63c6.01,-5.28 11.27,-9.9 17.07,-14.76c-0.81,3.21 -2.16,6.68 -3.93,11.22c2.91,0.15 5.89,0.47 8.85,0.47c29.94,0.03 59.87,-0.03 89.81,0.1c2.96,0 5.92,1.1 9.06,2.34z" fill="#F2FCD5" id="svg_15" opacity="1"/>
   <path d="m150.3,385.78c-1.14,8.58 -4.17,17.15 -4.52,25.81c-0.79,19.34 -0.25,38.72 -0.25,58.27c-15.49,0.9 -30.62,1.77 -46.48,2.72c3.05,-1.65 6.73,-4.51 10.67,-4.88c8.38,-0.77 16.9,-0.47 25.34,-0.15c5.36,0.2 7.12,-1.7 7.05,-6.75c-0.23,-17.77 -0.81,-35.6 0.26,-53.31c0.44,-7.33 4.73,-14.46 7.92,-21.72z" fill="#F6F8CA" id="svg_16" opacity="1"/>
   <path d="m236.61,518.69c-1.16,-2.4 -3.26,-5.51 -3.29,-8.62c-0.23,-34.08 0.02,-68.18 -0.3,-102.25c-0.05,-5.81 -2.17,-11.6 -3.44,-18.07c2.3,5.38 6.64,11.39 6.73,17.47c0.35,21.31 -1.12,42.61 -1.21,63.93c-0.05,15.6 0.98,31.21 1.51,47.54z" fill="#F6F8CA" id="svg_17" opacity="1"/>
   <path d="m835.79,508.17c4.98,-13.69 12.13,-26.83 15.77,-40.79c5.19,-19.85 11.37,-40.02 5.68,-61.01c-0.77,-2.87 -0.12,-6.08 -0.23,-9.87c1.14,4.24 3.05,9.17 3.44,14.21c2.56,34.35 -5.92,66.42 -22.73,96.68c-0.25,0.42 -0.88,0.65 -1.93,0.78z" fill="#F2FCD5" id="svg_18" opacity="1"/>
   <path d="m357.52,695.37c-27.57,-12.21 -62.52,-6.93 -86.95,19.24c0.02,-9.87 9.18,-13.46 16.11,-17.47c19.65,-11.39 41.42,-11.25 63.27,-7.28c2.72,0.48 5,3.22 7.57,5.51z" fill="#F6F8CA" id="svg_19" opacity="1"/>
   <path d="m224.25,383.55c-16.65,-6.26 -34.25,-1.72 -51.41,-2.74c-5.31,-0.32 -10.73,1.09 -16.65,2.05c3.38,-1.62 7.26,-5.06 11.29,-5.26c14.56,-0.68 29.2,-0.68 43.75,0c4.4,0.2 8.64,3.47 13.02,5.94z" fill="#F6F8CA" id="svg_20" opacity="1"/>
   <path d="m820.66,803.03c3.56,-8.78 8.97,-17.28 11.66,-26.5c5.17,-17.77 2.52,-35.15 -7.34,-51.85c3.47,6.75 9.66,13.73 10.53,21.26c2.02,17.52 2.05,35.4 -8.64,51.23c-1.45,2.19 -3.68,3.91 -6.2,5.86z" fill="#F2FCD5" id="svg_21" opacity="1"/>
   <path d="m704.72,590.66c-2.89,-1.1 -5.66,-2.86 -8.43,-4.61c0.11,-0.57 0.21,-1.12 0.3,-1.69c3.29,0 6.59,-0.22 9.85,0.03c22.31,1.69 43.55,-2.54 64.71,-10.6c-6.19,8.55 -16.79,9.07 -26.57,10.39c-10.22,1.37 -20.68,1.04 -30.97,2.02c-3.03,0.28 -5.85,2.49 -8.89,4.46z" fill="#F2FCD5" id="svg_22" opacity="1"/>
   <path d="m556.31,137.14c-24.78,-7.28 -50.06,-11.34 -76.92,-10.44c8.52,-0.6 17.86,-1.62 27.18,-1.4c17.37,0.4 34.18,3.72 49.74,11.84z" fill="#F6F8CA" id="svg_23" opacity="1"/>
   <path d="m87.3,480.96c-1.65,6.21 -3.94,12.47 -6.34,19.07c-9.06,0.85 -19.23,1.8 -29.97,3.07c5.15,-1.59 11.2,-5.64 16.55,-4.94c9.36,1.22 12.32,-2.72 14.53,-9.78c0.84,-2.65 3.03,-4.91 5.24,-7.41z" fill="#F6F8CA" id="svg_24" opacity="1"/>
   <path d="m796.42,696.52c-13.02,-0.25 -15.74,-10.32 -20.02,-19.64c1.65,0.67 4.42,1.64 4.92,3.27c2.44,7.76 8.59,11.96 15.09,16.36z" fill="#F2FCD5" id="svg_25" opacity="1"/>
   <path d="m24.15,521.03c-2.37,6.75 -5.35,13.51 -8.47,20.94c-1.17,-0.7 -3.4,-2.65 -3.05,-3.29c3.38,-5.99 7.2,-11.77 11.51,-17.65z" fill="#F6F8CA" id="svg_26" opacity="1"/>
   <path d="m39.87,507.62c-4.24,4.36 -9.17,8.68 -14.62,13.22c0.54,-7.9 5.5,-12.27 14.62,-13.22z" fill="#F6F8CA" id="svg_27" opacity="1"/>
   <path d="m772.81,573.34c4.49,-3.26 9.57,-6.14 15.28,-9.17c-1.59,7.25 -8.47,7.91 -15.28,9.17z" fill="#F2FCD5" id="svg_28" opacity="1"/>
   <path d="m604.7,171.52c-2.91,-2.35 -5.82,-5.36 -8.82,-8.95c6.77,-1.14 8.06,3.34 8.82,8.95z" fill="#F6F8CA" id="svg_29" opacity="1"/>
   <path d="m773.67,671.36c-2.82,-3.16 -5.26,-6.88 -7.78,-11.19c2.66,3.16 5.42,6.9 7.78,11.19z" fill="#F2FCD5" id="svg_30" opacity="1"/>
   <path d="m264.26,721.42c-1.35,3.71 -3.35,7.48 -5.89,11.47c1.37,-3.64 3.31,-7.53 5.89,-11.47z" fill="#F6F8CA" id="svg_31" opacity="1"/>
   <path d="m810.16,545.89c1.38,-2.64 3.42,-5.33 6.01,-8.22c-1.42,2.59 -3.4,5.38 -6.01,8.22z" fill="#F2FCD5" id="svg_32" opacity="1"/>
   <path d="m824.52,723.14c-2.26,-2.09 -4.12,-4.73 -6.12,-7.93c2.09,2.07 4.29,4.73 6.12,7.93z" fill="#F2FCD5" id="svg_33" opacity="1"/>
   <path d="m49.3,503.55c-2.12,1.6 -4.85,2.81 -8.22,4.09c2.12,-1.44 4.87,-2.96 8.22,-4.09z" fill="#F6F8CA" id="svg_34" opacity="1"/>
   <path d="m822.41,530.85c0.81,-2.62 2.26,-5.29 4.26,-8.2c-0.82,2.57 -2.23,5.34 -4.26,8.2z" fill="#F2FCD5" id="svg_35" opacity="1"/>
   <path d="m566.79,142.17c-3.28,-0.62 -6.38,-1.82 -9.8,-3.46c3.12,0.65 6.55,1.77 9.8,3.46z" fill="#F6F8CA" id="svg_36" opacity="1"/>
   <path d="m827.78,522.47c0.77,-2.62 2.19,-5.28 4.15,-8.17c-0.81,2.55 -2.16,5.33 -4.15,8.17z" fill="#F2FCD5" id="svg_37" opacity="1"/>
   <path d="m734.41,620.73c-1.77,-1.3 -3.52,-3.22 -5.4,-5.73c1.72,1.32 3.56,3.21 5.4,5.73z" fill="#F2FCD5" id="svg_38" opacity="1"/>
   <path d="m574.8,146.43c-2.3,-0.35 -4.64,-1.34 -7.33,-2.74c2.21,0.43 4.73,1.29 7.33,2.74z" fill="#F6F8CA" id="svg_39" opacity="1"/>
   <path d="m595.85,161.45c-2.19,-0.73 -4.42,-2.1 -6.89,-3.99c2.12,0.78 4.49,2.09 6.89,3.99z" fill="#F6F8CA" id="svg_40" opacity="1"/>
   <path d="m790.9,562.64c1.37,-1.69 3.38,-3.36 6.01,-5.14c-1.38,1.64 -3.37,3.39 -6.01,5.14z" fill="#F2FCD5" id="svg_41" opacity="1"/>
   <path d="m229.59,388.54c-1.65,-0.72 -3.26,-2.05 -5.12,-3.92c1.56,0.73 3.35,2 5.12,3.92z" fill="#F6F8CA" id="svg_42" opacity="1"/>
   <path d="m799.68,555.96c0.77,-1.59 2.24,-3.17 4.26,-5.01c-0.81,1.5 -2.19,3.26 -4.26,5.01z" fill="#F2FCD5" id="svg_43" opacity="1"/>
   <path d="m585.37,153.17c-1.75,-0.38 -3.56,-1.39 -5.64,-2.81c1.67,0.43 3.63,1.3 5.64,2.81z" fill="#F6F8CA" id="svg_44" opacity="1"/>
   <path d="m755.44,645.78c-1.75,-1.25 -3.51,-3.16 -5.33,-5.64c1.72,1.27 3.52,3.14 5.33,5.64z" fill="#F2FCD5" id="svg_45" opacity="1"/>
   <path d="m833.09,514.09c-0.25,-1.6 0.19,-3.29 1.09,-5.29c0.18,1.54 -0.11,3.37 -1.09,5.29z" fill="#F2FCD5" id="svg_46" opacity="1"/>
   <path d="m743.18,630.75c-1.17,-0.75 -2.35,-2.12 -3.65,-4.06c1.14,0.77 2.38,2.1 3.65,4.06z" fill="#F2FCD5" id="svg_47" opacity="1"/>
   <path d="m750.15,639c-1.17,-0.72 -2.33,-2.07 -3.61,-3.97c1.12,0.75 2.38,2.05 3.61,3.97z" fill="#F2FCD5" id="svg_48" opacity="1"/>
   <path d="m762.42,654.03c-1.17,-0.72 -2.33,-2.07 -3.61,-3.97c1.12,0.75 2.38,2.05 3.61,3.97z" fill="#F2FCD5" id="svg_49" opacity="1"/>
   <path d="m97.72,472.56c-0.75,1.12 -2.16,2.2 -4.14,3.39c0.79,-1.07 2.14,-2.24 4.14,-3.39z" fill="#F6F8CA" id="svg_50" opacity="1"/>
   <path d="m611.67,179.82c-1.16,-0.73 -2.31,-2.07 -3.58,-3.96c1.14,0.75 2.37,2.04 3.58,3.96z" fill="#F6F8CA" id="svg_51" opacity="1"/>
   <path d="m817.26,537.48c0.23,-1.52 1.09,-3.09 2.49,-4.91c-0.26,1.45 -1.05,3.16 -2.49,4.91z" fill="#F2FCD5" id="svg_52" opacity="1"/>
   <path d="m267.82,716.39c-0.21,1.5 -1.07,3.06 -2.47,4.84c0.26,-1.45 1.05,-3.12 2.47,-4.84z" fill="#F6F8CA" id="svg_53" opacity="1"/>
   <path d="m806.15,702.48c-1.58,-0.2 -3.21,-1 -5.07,-2.32c1.52,0.23 3.28,0.99 5.07,2.32z" fill="#F2FCD5" id="svg_54" opacity="1"/>
   <path d="m765.93,659.05c-1.09,-0.75 -2.16,-2.12 -3.42,-3.99c1.02,0.8 2.23,2.09 3.42,3.99z" fill="#F2FCD5" id="svg_55" opacity="1"/>
   <path d="m154.53,383.38c-0.51,1 -1.58,1.65 -3.14,2.39c0.53,-0.87 1.56,-1.8 3.14,-2.39z" fill="#F6F8CA" id="svg_56" opacity="1"/>
   <path d="m813.23,709.3c-1.12,-0.22 -2.28,-1 -3.52,-2.39c1.1,0.22 2.28,1 3.52,2.39z" fill="#F2FCD5" id="svg_57" opacity="1"/>
   <path d="m614.16,183.84c-1.05,-0.48 -1.75,-1.5 -2.51,-2.99c0.91,0.5 1.89,1.49 2.51,2.99z" fill="#F6F8CA" id="svg_58" opacity="1"/>
   <path d="m239.08,522.8c-1.05,-0.48 -1.74,-1.5 -2.51,-2.99c0.91,0.5 1.89,1.49 2.51,2.99z" fill="#F6F8CA" id="svg_59" opacity="1"/>
   <path d="m619.42,192.19c-1.05,-0.48 -1.75,-1.5 -2.51,-2.99c0.91,0.5 1.89,1.49 2.51,2.99z" fill="#F6F8CA" id="svg_60" opacity="1"/>
   <path d="m809.67,705.86c-1.1,-0.18 -2.24,-0.95 -3.47,-2.29c1.09,0.18 2.26,0.95 3.47,2.29z" fill="#F2FCD5" id="svg_61" opacity="1"/>
   <path d="m800.89,699.13c-1.14,0.17 -2.37,-0.27 -3.86,-1.12c1.07,-0.1 2.42,0.2 3.86,1.12z" fill="#F2FCD5" id="svg_62" opacity="1"/>
   <path d="m616.93,188.17c-0.7,-0.42 -1.38,-1.45 -2.33,-2.89c0.6,0.48 1.47,1.39 2.33,2.89z" fill="#F6F8CA" id="svg_63" opacity="1"/>
   <path d="m579.07,148.88c-1.42,0.05 -2.66,-0.45 -4.08,-1.44c1.28,-0.02 2.77,0.42 4.08,1.44z" fill="#F6F8CA" id="svg_64" opacity="1"/>
   <path d="m776.44,675.75c-0.72,-0.43 -1.4,-1.47 -2.37,-2.92c0.61,0.5 1.51,1.4 2.37,2.92z" fill="#F2FCD5" id="svg_65" opacity="1"/>
   <path d="m427.52,537.76c-13.32,-13.27 -18.19,-30.14 -22.63,-47.35c-7.75,-30.21 -16.09,-60.26 -23.99,-90.43c-2.4,-9.18 -4.14,-18.53 -6.19,-27.8c0.67,-0.57 1.33,-1.14 2,-1.7c8.99,7.76 17.98,15.53 26.92,23.36c0.4,0.35 0.25,1.45 0.14,2.17c-4.94,33.6 8.8,58.59 39.43,76.87c1.81,0.88 2.75,1.12 3.7,1.37c0,0 0.09,-0.08 0.07,0.55c6.71,4.66 12.95,10.74 20.28,12.36c32.04,7.03 55.84,-0.28 75.17,-32.01c5.54,-9.1 6.52,-20.74 9.71,-30.57c1.79,1.92 3.26,3.92 5.17,4.39c35.7,8.77 66.86,1.54 91.91,-24.95c8.4,-8.88 15.46,-18.87 15.14,-31.78c4.66,6.68 12.04,12.86 13.5,20.1c5.17,25.91 2.14,51.7 -7.26,76.54c-9.24,24.45 -22.29,46.84 -41.08,65.92c-1.12,1.14 -2.72,1.87 -5.54,2.84c-66.44,0.05 -131.45,0.08 -196.46,0.12z" fill="#C9F8F1" id="svg_66" opacity="1"/>
   <path d="m142.15,537.43c1.72,5.29 4.89,10.55 4.91,15.85c0.35,64.15 0.35,128.32 0.02,192.47c-0.04,5.93 -3.08,11.86 -5.84,18.33c-30.9,0.52 -60.69,0.47 -90.44,-0.35c0.05,-68.86 0.07,-136.94 0.09,-205.03c0,-2.5 -0.19,-5.03 0.07,-7.5c1,-9.35 4.03,-11.91 13.95,-11.92c22.75,-0.02 45.5,0.07 68.27,-0.08c3,-0.02 5.98,-1.15 8.97,-1.77z" fill="#C9F8F1" id="svg_67" opacity="1"/>
   <path d="m820.43,380.47c8.69,17.43 8.89,35.55 7.45,54.53c-1.16,15.19 -5.1,29.1 -11.83,43.55c-36.7,0.6 -72.3,0.65 -107.89,0.53c-2.98,0 -5.98,-1.14 -8.97,-1.74c2.44,-9.99 5.78,-19.85 7.13,-29.96c2.87,-21.81 4.24,-43.71 -0.88,-65.75c2.44,-0.02 4.12,0.63 5.78,0.63c34.3,0.07 68.6,0.08 102.88,-0.03c2.12,0 4.22,-1.15 6.33,-1.77z" fill="#CBF8F1" id="svg_68" opacity="1"/>
   <path d="m443.56,349.07c-9.2,6.83 -18.4,13.66 -28.52,21.14c-15.62,-13.51 -31.99,-27.67 -48.22,-42.73c-11.18,-42.49 -2.1,-80.58 26.43,-112.87c25.31,-28.62 67.04,-45.23 91.98,-38.99c-3.84,2.57 -6.52,4.26 -9.08,6.09c-18.33,13.22 -28.43,31.71 -36.32,51.63c-10.13,25.58 -10.15,52.33 -8.04,78.8c1.02,12.52 7.66,24.65 11.76,36.93z" fill="#C9F6F1" id="svg_69" opacity="1"/>
   <path d="m599.05,590.63c4,-5.08 8.54,-6.98 14.69,-6.38c5.49,0.55 11.15,0.67 16.6,0.02c15.62,-1.85 28.88,3.12 40.49,12.41c11.69,9.35 22.89,19.29 34.21,29.07c2.47,2.14 6.05,4.37 0.44,7.4c-35.65,19.19 -71.16,38.64 -106.89,57.66c-7.05,3.76 -14.95,6.04 -20.66,8.3c-9.88,-21.12 -19.56,-41.76 -29.18,-62.26c16,-14.68 32.93,-30.22 50.32,-46.2z" fill="#FEF4B1" id="svg_70" opacity="1"/>
   <path d="m688.77,761.21c-27.11,0 -54.21,0 -80.15,0c-2.54,-10.34 -4.77,-20.04 -7.36,-29.65c-1.31,-4.84 -5.92,-10.7 -4.29,-13.93c1.81,-3.52 9.18,-4.31 13.9,-6.7c26.57,-13.41 53.18,-26.75 79.52,-40.54c8.94,-4.68 17.44,-10.29 25.66,-16.1c5.61,-3.96 9.67,-3.61 13.74,1.6c8.68,11.1 17.44,22.16 27.2,34.56c-29.73,0.55 -48.11,15.43 -61.73,38.7c-2.58,11.29 -4.54,21.67 -6.48,32.04z" fill="#FEF4B1" id="svg_71" opacity="1"/>
   <path d="m557.25,302.21c-12.53,-7.71 -24.43,-16.66 -37.77,-22.78c-12.43,-5.69 -26.38,-8.35 -39.65,-12.37c-1.89,-0.57 -3.73,-1.3 -5.73,-2c7.2,-36.52 26.96,-63.23 64.04,-76.39c7.82,-2.77 16.51,-3.36 25.57,-4.21c2.52,4.17 3.93,7.81 6.12,10.99c9.45,13.69 11.83,27.9 4.36,43.1c-9.59,19.49 -14.93,39.84 -13.97,61.51c0.02,0.68 -1.95,1.44 -2.98,2.15z" fill="#78C9C0" id="svg_72" opacity="1"/>
   <path d="m698.66,477.69c3.52,0.27 6.52,1.4 9.5,1.4c35.6,0.12 71.19,0.07 107.58,0.02c-4.77,11.77 -9.29,24.16 -16.21,35.18c-5.73,9.17 -14.3,16.71 -22.92,24.98c-4.5,-1.1 -7.68,-3.19 -10.83,-3.16c-29.11,0.27 -58.21,0.97 -87.3,1.34c-4.17,0.05 -8.34,-1.09 -12.5,-1.67c8.64,-13.98 17.51,-27.83 25.82,-41.99c2.84,-4.86 4.28,-10.47 6.87,-16.1z" fill="#81D2C7" id="svg_73" opacity="1"/>
   <path d="m444.26,349.02c-4.8,-12.24 -11.44,-24.36 -12.46,-36.88c-2.1,-26.47 -2.09,-53.21 8.04,-78.8c7.89,-19.92 17.98,-38.4 36.32,-51.63c2.56,-1.84 5.24,-3.52 9.08,-6.09c-24.94,-6.24 -66.67,10.37 -91.98,38.99c-28.53,32.29 -37.61,70.38 -26.68,112.37c-12.51,-5.73 -11.57,-17.25 -12.27,-27.5c-0.88,-12.74 -2.66,-26.11 0.4,-38.2c4.1,-16.2 10.9,-32.24 19.37,-46.85c12.25,-21.11 32.81,-34.86 54.96,-45.4c16.91,-8.03 34.72,-15.13 54.54,-13.78c16.91,1.15 33.83,2.2 50.72,3.44c1.58,0.12 3.08,1.3 5.82,2.54c-8.64,2.79 -16.69,4.61 -24.01,7.88c-30.72,13.68 -50.65,36.6 -62.15,66.76c-12.08,31.62 -11.9,63.52 -3.68,95.78c1.24,4.86 2.54,9.7 3.91,14.91c-3.35,0.87 -6.29,1.64 -9.94,2.47z" fill="#FDFFFE" id="svg_74" opacity="1"/>
   <path d="m192.75,522.84c15.3,-0.55 29.74,12.52 29.8,28.22c0.25,66.66 0.19,133.31 -0.11,199.97c-0.02,4.59 -3.01,9.17 -5.8,13.44c-8.06,-0.67 -14.93,-1.04 -21.58,-2.07c0.56,-3.94 1.24,-7.2 1.24,-10.47c0.07,-68.51 0.16,-137 -0.11,-205.51c-0.04,-7.86 -2.24,-15.71 -3.45,-23.58z" fill="#7CCEC7" id="svg_75" opacity="1"/>
   <path d="m191.95,522.73c2.02,7.96 4.22,15.81 4.26,23.68c0.26,68.51 0.18,137 0.11,205.51c0,3.27 -0.68,6.53 -1.35,10.84c-0.3,1.05 -0.42,1.8 -1.23,1.85c-5.4,0.05 -10.11,0.62 -14.58,-0.15c-2.16,-0.37 -3.84,-3.22 -5.75,-4.94c0.65,-61.23 2.09,-122.48 1.33,-183.69c-0.18,-14.18 2.75,-29.84 -6.4,-43.26c-2,-2.94 -3.87,-5.94 -6.45,-9.95c9.96,0 19.61,0 30.06,0.12z" fill="#C9F6F1" id="svg_76" opacity="1"/>
   <path d="m474.51,720.82c-9.34,13.83 -11.48,17.47 -14.23,40.14c-19.95,0 -39.94,0 -59.27,0c-1.88,-6.68 -3.1,-13.11 -5.54,-19.07c-2.24,-5.43 -0.42,-8.37 4.43,-10.62c35.4,-16.36 68.53,-36.28 100.15,-58.52c9.38,-6.6 18.39,-13.66 28.39,-21.14c6.2,13.01 11.88,24.93 18.26,38.3c-31.46,-2.84 -54.84,7.3 -72.19,30.91z" fill="#FEF7B2" id="svg_77" opacity="1"/>
   <path d="m441.54,442.55c-10.53,-5.04 -15.63,-14.63 -16.95,-24.39c-3.07,-23.01 6.92,-36.9 28.78,-47.74c17.02,-8.42 43.55,0.58 53.25,15.24c-1.12,11.74 -1.51,22.26 -3.59,32.44c-3,14.58 -16.25,24.14 -31.86,24.33c-9.87,0.1 -19.75,0.08 -29.62,0.12z" fill="#FDFFFE" id="svg_78" opacity="1"/>
   <path d="m799.33,768.19c-7.33,25.93 -27.13,36.92 -52.9,32.83c-16.47,-2.6 -27.04,-14.74 -30.39,-30.06c-3.61,-16.43 -2.02,-32.91 13.29,-44.52c5.07,-3.86 11.83,-5.69 18.49,-7.58c0.65,7.7 0.65,14.53 0.65,21.12c20.73,4.41 22.77,5.81 27.25,18.32c3.96,11.09 5.82,11.82 17.32,6.78c1.81,-0.78 3.54,-1.75 5.82,-2.91c0.18,2.27 0.32,4.14 0.47,6.01z" fill="#CAEDE7" id="svg_79" opacity="1"/>
   <path d="m509.9,798.21c-24.75,-10.25 -34.56,-43.73 -15.23,-67.17c19.66,-23.86 65.51,-19.8 77.63,15.55c1.38,4.02 -0.25,8.98 -1.49,14.23c-6.1,1.74 -11.13,2.97 -16.25,3.74c-7.43,1.12 -10.76,-1.67 -11.16,-8.93c-0.6,-10.62 -4.52,-14.23 -15.56,-14.29c-10.01,-0.05 -17.09,5.78 -17.74,14.59c-0.77,10.59 4.38,17.4 17.53,19.97c8.43,1.65 7.82,6.01 4.77,10.44c-2.45,3.57 -6.91,6.21 -10.97,8.37c-3.45,1.84 -7.66,2.4 -11.51,3.52z" fill="#FDFFFE" id="svg_80" opacity="1"/>
   <path d="m210.67,502.53c-7.17,-0.05 -14.34,0.07 -21.49,-0.28c-1.14,-0.05 -3.1,-2.19 -3.1,-3.34c0.07,-9.68 -6.47,-15.7 -13.34,-21.06c-3.58,-2.81 -4.52,-5.44 -4.49,-9.48c0.18,-19.44 0.25,-38.87 -0.02,-58.29c-0.09,-5.68 1.63,-8.18 7.92,-7.8c10.92,0.67 21.86,0.87 33.49,2.37c0.81,33.36 0.91,65.62 1.02,97.88z" fill="#FEF7B2" id="svg_81" opacity="1"/>
   <path d="m427.8,538.26c64.73,-0.53 129.73,-0.57 195.58,-0.55c-13.9,14.14 -31.27,22.99 -52.47,23.21c-28.83,0.28 -57.66,-0.3 -86.48,0.18c-22.43,0.38 -40.64,-7.85 -56.63,-22.84z" fill="#86D6CB" id="svg_82" opacity="1"/>
   <path d="m299.58,796.54c-13.62,-5.86 -24.57,-24.65 -22.57,-39.97c2.35,-17.85 10.24,-32.36 29.22,-38.27c19.7,-6.14 39.24,-1.17 51.46,17.05c5.31,7.91 8.4,16.53 5.99,26.92c-7.15,1.19 -13.39,1.9 -19.61,1.85c-1.88,-0.02 -4.17,-1.94 -5.45,-3.57c-1.23,-1.57 -1.38,-3.91 -2.03,-6.53c-1.07,-9.28 -7.73,-12.11 -15.3,-12.49c-7.75,-0.4 -15.07,1.44 -18.53,10.22c-0.16,4.63 0.18,8.8 0.58,13.56c4.71,3.49 9.36,6.41 14.7,9.35c3.12,1.75 7.87,4.14 7.57,5.06c-1.51,4.68 -3.15,10.87 -6.94,12.94c-5.36,2.94 -12.64,2.74 -19.09,3.89z" fill="#FDFFFE" id="svg_83" opacity="1"/>
   <path d="m142.1,536.84c-2.94,1.2 -5.92,2.34 -8.92,2.35c-22.77,0.15 -45.52,0.07 -68.27,0.08c-9.92,0.02 -12.95,2.57 -13.95,11.92c-0.26,2.47 -0.07,4.99 -0.07,7.5c-0.02,68.09 -0.04,136.17 -0.56,205.26c-1.81,1.44 -3.12,1.87 -4.42,2.3c-1.84,-4.96 -5.28,-9.92 -5.29,-14.88c-0.37,-66.22 0.05,-132.46 -0.49,-198.68c-0.11,-14.14 15.77,-31.49 31.55,-30.34c14.21,1.04 28.6,0.35 42.91,0.18c11.85,-0.15 21.01,4.21 27.52,14.29z" fill="#FDFFFE" id="svg_84" opacity="1"/>
   <path d="m820.38,379.89c-2.05,1.2 -4.15,2.35 -6.27,2.35c-34.28,0.12 -68.58,0.1 -102.88,0.03c-1.67,0 -3.35,-0.65 -5.66,-1.3c-6.01,-8.33 -11.37,-16.35 -17.04,-24.81c0.58,-0.07 2.54,-0.52 4.49,-0.52c30.93,-0.05 61.85,-0.12 92.77,0c13.71,0.07 22.36,8.67 30.67,17.47c1.65,1.75 2.59,4.11 3.93,6.78z" fill="#FDFFFE" id="svg_85" opacity="1"/>
   <path d="m665.45,536.03c4.68,0.33 8.85,1.47 13.02,1.42c29.09,-0.37 58.19,-1.07 87.3,-1.34c3.15,-0.03 6.33,2.05 10.22,3.21c-10.03,11.96 -24.68,18.52 -40.03,19.52c-31.32,2.05 -62.82,1.47 -94.24,1.92c-0.42,0.02 -0.84,-0.57 1.21,1.49c7.33,-8.65 14.67,-17.3 22.52,-26.21z" fill="#78C9C0" id="svg_86" opacity="1"/>
   <path d="m590.45,200.46c7.33,10.47 10.41,22.17 10.74,34.56c0.7,26.58 -0.44,53.3 2.31,79.68c2.12,20.2 1.54,41.26 11.27,60.43c1.35,2.67 -0.12,6.65 -1.82,10.02c-8.47,-16.13 -16.93,-32.24 -25.59,-49.67c-0.77,-14.58 -1.68,-27.83 -1.82,-41.09c-0.26,-24.73 -0.42,-49.47 0.14,-74.19c0.16,-6.61 3.1,-13.16 4.77,-19.74z" fill="#FDFFFE" id="svg_87" opacity="1"/>
   <path d="m590.41,199.89c-1.63,7.15 -4.57,13.69 -4.73,20.3c-0.56,24.71 -0.4,49.46 -0.14,74.19c0.14,13.26 1.05,26.52 1.54,40.56c-9.83,-10.04 -19.59,-20.87 -29.6,-32.21c0.81,-1.24 2.77,-1.99 2.75,-2.67c-0.96,-21.67 4.38,-42.03 13.97,-61.51c7.47,-15.19 5.08,-29.4 -4.36,-43.1c-2.19,-3.17 -3.59,-6.81 -5.35,-10.84c11.6,-0.07 18.7,7.38 25.92,15.28z" fill="#8FE0D2" id="svg_88" opacity="1"/>
   <path d="m471.81,798.06c0.58,0 1.02,0.23 1.4,1.7c1.89,2.87 3.7,4.74 5.52,6.6c0,0 -0.14,0.05 -0.14,0.62c1.79,1.85 3.58,3.12 5.38,4.39c0,0 -0.14,0.05 -0.23,0.65c-3.24,1.89 -6.38,4.24 -9.53,4.27c-29.43,0.28 -58.87,0.18 -88.32,0.13c-2.16,0 -4.31,-0.47 -6.15,-0.68c1,-3.79 1.84,-6.93 2.66,-10.07c0,0 0.25,-0.37 1.02,-0.13c1.82,-1.29 2.86,-2.79 3.91,-4.22c0.02,0.07 -0.12,0.03 0.51,-0.02c2.58,-3.94 4.52,-7.83 6.48,-11.67c0,0.03 -0.09,0 0.65,-0.03c4.47,-0.53 8.18,-1.4 11.9,-1.45c14.02,-0.17 28.04,0.02 42.05,-0.1c8.17,-0.07 16.6,-1.07 19.81,8.9c0.19,0.62 2.02,0.75 3.08,1.12z" fill="#FEF4B3" id="svg_89" opacity="1"/>
   <path d="m260.97,237.08c-0.98,-0.75 -1.98,-1.5 -3.08,-3.41c1.96,-2.42 4,-4.71 6.13,-4.81c19.4,-0.82 38.84,-0.99 58.24,-1.95c8.38,-0.42 12.08,2.24 10.9,10.3c-1.21,5.08 -2.42,10.15 -4.4,16.05c-2.56,10.74 -4.36,20.65 -6.26,31.02c-1.24,0.18 -3.63,0.53 -6.01,0.87c0,0 -0.35,-0.22 -0.11,-0.95c-1.38,-1.74 -2.98,-2.72 -4.59,-3.71c-0.98,-0.75 -1.98,-1.5 -3.17,-3.31c-2.59,-2.39 -4.96,-3.72 -7.34,-5.04c-2.12,-1.84 -4.26,-3.67 -6.64,-6.56c-1.47,-1.85 -2.66,-2.65 -3.87,-3.46c-0.58,0 -1.03,-0.23 -1.47,-1.69c-4.82,-4.52 -9.52,-8.06 -14.2,-11.62c0,0 0.12,-0.05 0.11,-0.6c-4.73,-4.09 -9.48,-7.61 -14.23,-11.14z" fill="#FEF7B2" id="svg_90" opacity="1"/>
   <path d="m487.48,298.71c18.09,2.37 33.11,11.14 46.34,22.21c22.63,18.92 40.87,40.99 48.81,69.46c0.28,1.05 0.75,2.04 0.98,3.09c0.11,0.5 -0.19,1.07 -0.37,1.94c-13.58,0 -27.24,0 -40.49,-0.7c3.38,-0.8 6.38,-0.9 10.15,-0.88c4.73,0.12 8.69,0.12 13.99,0.12c-12.46,-31.69 -33.74,-54.52 -61.78,-71.73c0.91,-0.35 1.35,-0.63 1.75,-0.97c0.02,-0.03 -0.19,-0.47 -0.39,-0.57c-8.33,-4.49 -16.04,-9.6 -19.89,-18.42c-0.39,-0.9 0.56,-2.34 0.89,-3.54z" fill="#FDFFFE" id="svg_91" opacity="1"/>
   <path d="m510.26,798.78c3.49,-1.69 7.69,-2.25 11.15,-4.09c4.07,-2.15 8.52,-4.79 10.97,-8.37c3.05,-4.42 3.66,-8.78 -4.77,-10.44c-13.14,-2.57 -18.3,-9.38 -17.53,-19.97c0.65,-8.82 7.73,-14.64 17.74,-14.59c11.04,0.07 14.97,3.67 15.56,14.29c0.4,7.26 3.73,10.05 11.16,8.93c5.12,-0.77 10.15,-2 15.91,-3.12c4.54,19.39 -19.58,41.58 -39.35,39.99c-6.84,-0.55 -13.65,-1.37 -20.86,-2.64z" fill="#D2EEE8" id="svg_92" opacity="1"/>
   <path d="m552.01,423.94c-3.07,10.47 -4.05,22.11 -9.59,31.21c-19.33,31.73 -43.13,39.04 -75.17,32.01c-7.33,-1.62 -13.57,-7.7 -20.31,-12.32c16.84,1.5 33.88,3.57 50.09,-2.94c22.64,-9.1 36.77,-25.35 42.05,-49.41c3.65,0 7.62,0 12.36,0.42c0.74,0.4 0.58,1.04 0.58,1.04z" fill="#7CCEC7" id="svg_93" opacity="1"/>
   <path d="m800,767.82c-0.82,-1.5 -0.96,-3.37 -1.14,-5.64c-2.28,1.15 -4.01,2.12 -5.82,2.91c-11.5,5.04 -13.36,4.31 -17.32,-6.78c-4.49,-12.51 -6.52,-13.91 -27.25,-18.32c0,-6.6 0,-13.42 0.02,-21.01c15.21,-7.75 35.68,3.31 43.78,13.64c8.22,10.5 10.13,22.24 7.73,35.2z" fill="#FDFFFE" id="svg_94" opacity="1"/>
   <path d="m231.31,789.66c9.9,-2.2 10.22,-11.37 13.97,-17.92c1.84,-3.21 2.45,-7.06 4.29,-12.66c3,15.14 3.4,28.79 14.76,38.9c1.23,0.07 1.68,0.32 2.09,1.8c1.31,2.3 2.56,3.61 3.8,4.93c1.56,1.3 3.12,2.6 4.85,5.09c-1.67,3.01 -3.47,6.36 -5.35,6.4c-17.98,0.4 -36,0.3 -54,0.13c-1.68,0 -4.84,-1.54 -4.78,-2.14c0.26,-2.6 1.02,-5.38 2.44,-7.61c1.35,-2.09 3.75,-3.57 5.68,-5.31c0,0 0.05,0.12 0.65,0.12c2.52,-1.72 4.43,-3.42 6.36,-5.14c0,0 0.05,0.13 0.63,0.07c1.93,-2.27 3.28,-4.51 4.63,-6.73c0,0 0.02,0.08 -0.02,0.07z" fill="#FEF7B2" id="svg_95" opacity="1"/>
   <path d="m504.62,322.25c28.53,17.16 49.81,39.99 62.27,71.68c-5.29,0 -9.25,0 -14.06,-0.68c-3.31,-5.01 -5.08,-9.93 -8.45,-13.49c-4.94,-5.24 -11.02,-9.52 -16.62,-14.19c-1.67,-1.37 -3.31,-2.74 -5.22,-5.14c-1.44,-1.69 -2.61,-2.34 -3.8,-3.01c-4.24,-2.17 -8.47,-4.34 -13.32,-7.45c-2.96,-10.34 -5.33,-19.74 -7.1,-29.02c2.47,0.52 4.38,0.92 6.29,1.3z" fill="#FEE871" id="svg_96" opacity="1"/>
   <path d="m552.14,424.57c-0.12,-0.63 0.04,-1.27 0.07,-1.59c11.83,-0.97 23.94,-0.13 35.3,-2.55c26.76,-5.73 51.05,-16.15 66.32,-39.76c1.77,-2.74 3.79,-5.33 6.87,-8.18c2.02,-0.2 2.86,-0.22 3.7,-0.22c0,0 -0.07,0.02 -0.05,0c0.33,12.87 -6.73,22.86 -15.13,31.74c-25.05,26.48 -56.21,33.71 -91.91,24.95c-1.91,-0.47 -3.38,-2.47 -5.17,-4.39z" fill="#FDFFFE" id="svg_97" opacity="1"/>
   <path d="m45.97,766.83c1.24,-1 2.56,-1.44 4.33,-2.1c30.25,-0.18 60.05,-0.13 90.65,-0.1c-3.51,10.14 -12.43,15.26 -22.84,16.48c-13.95,1.62 -28.15,1.85 -42.22,1.77c-12.51,-0.08 -22.28,-6.16 -29.92,-16.05z" fill="#8FE0D2" id="svg_98" opacity="1"/>
   <path d="m121.02,819.82c-9.53,0 -18.19,0 -27.29,0c1.79,-2.34 4.05,-4.02 4.47,-6.06c2.52,-11.89 11.69,-10.9 21.03,-10.75c17.16,0.3 34.32,0.08 50.76,0.08c3.07,5.74 5.85,10.94 8.94,16.73c-18.53,0 -37.79,0 -57.91,0z" fill="#F6F8CA" id="svg_99" opacity="1"/>
   <path d="m336.61,754.63c0.61,2 0.77,4.34 2,5.91c1.28,1.64 3.58,3.56 5.45,3.57c6.22,0.05 12.46,-0.67 19.49,-1.12c1.3,19.34 -21.15,38.94 -38.26,38.27c-8.4,-0.33 -16.7,-2.37 -25.38,-4.19c6.12,-1.69 13.39,-1.49 18.75,-4.42c3.79,-2.07 5.43,-8.27 6.94,-12.94c0.3,-0.92 -4.45,-3.31 -7.06,-5.51c3.28,-0.72 6.77,-1.32 10.18,-1.07c7.24,0.53 10.38,-1.44 7.97,-8.92c-0.95,-2.94 -0.12,-6.38 -0.09,-9.58z" fill="#D2EEE8" id="svg_100" opacity="1"/>
   <path d="m515.68,597.21c-3.72,-4.24 -7.01,-8.03 -10.92,-12.56c22.01,0 42.85,0 66.11,0c-13.3,11.42 -25.27,21.71 -37.3,32.04c-6.26,-6.81 -11.87,-12.92 -17.89,-19.49z" fill="#FEF4B3" id="svg_101" opacity="1"/>
   <path d="m441.81,443.09c9.6,-0.57 19.49,-0.55 29.36,-0.65c15.62,-0.18 28.87,-9.75 31.86,-24.33c2.09,-10.19 2.47,-20.7 3.65,-31.86c10.88,9.88 8.54,22.86 4.94,34.73c-8.54,28.27 -40.33,40.09 -66.39,25.5c-1.21,-0.68 -2.1,-1.9 -3.42,-3.39z" fill="#D2EEE8" id="svg_102" opacity="1"/>
   <path d="m497.73,320.81c2.37,9.42 4.73,18.82 7.12,28.87c-7.92,-1.87 -15.88,-4.37 -24.78,-7.2c-1.59,-9.08 -3.31,-18.83 -4.31,-29.39c9.39,-1.55 15.88,2.67 21.98,7.71z" fill="#E5B953" id="svg_103" opacity="1"/>
   <path d="m713.35,811.67c0.02,0.57 0.28,1 1.44,1.94c2.87,1.45 5.08,2.25 7.29,3.06c0.02,0.65 0.05,1.3 -0.77,2.5c-49.32,0.52 -97.8,0.47 -146.28,0.42c3.42,-2.89 6.84,-5.78 10.95,-8.7c0.7,-0.05 1.24,0.58 1.26,1.27c1.59,1.89 3.15,4.12 4.73,4.14c37.58,0.2 75.15,0.22 112.73,-0.05c1.68,-0.02 3.37,-3.04 5.1,-4.73c0.07,-0.07 0.21,-0.18 0.77,-0.13c1.3,0.13 2.03,0.22 2.77,0.28z" fill="#F2FCD5" id="svg_104" opacity="1"/>
   <path d="m172.88,759.87c2.44,1.37 4.12,4.22 6.27,4.59c4.47,0.77 9.18,0.2 14.6,0.77c0.28,5.83 -0.26,11.09 -0.81,16.36c-10.67,0.68 -21.35,1.39 -31.64,2.05c3.96,-8.4 7.5,-15.9 11.57,-23.78z" fill="#81D2C7" id="svg_105" opacity="1"/>
   <path d="m382.01,805.96c-0.42,2.86 -1.26,5.99 -2.26,9.78c1.84,0.22 4,0.68 6.15,0.68c29.44,0.05 58.89,0.15 88.32,-0.13c3.15,-0.03 6.29,-2.39 9.55,-4.34c3.45,1.69 6.77,4.04 12.13,7.85c-9.88,0 -17.3,0 -24.71,0c-32.04,0 -64.06,0.05 -96.1,-0.07c-2.87,-0.02 -5.75,-1.07 -8.01,-2.45c2.58,-1.9 4.56,-3.01 6.52,-4.12c2.66,-2.3 5.33,-4.61 8.41,-7.2z" fill="#F2FCD5" id="svg_106" opacity="1"/>
   <path d="m147.22,491.06c0,3.56 0,7.1 0,10.24c-13.58,0 -26.64,0 -41.31,0c1.4,-4.27 2.35,-7.18 4.75,-10.27c13.13,-0.12 24.85,-0.03 36.56,0.03z" fill="#F6F8CA" id="svg_107" opacity="1"/>
   <path d="m218.43,801.57c-1.3,1.45 -3.7,2.94 -5.05,5.03c-1.42,2.24 -2.17,5.01 -2.44,7.61c-0.05,0.6 3.1,2.14 4.78,2.14c18,0.17 36.02,0.27 54,-0.13c1.88,-0.03 3.68,-3.39 5.54,-5.93c3.87,2.59 7.73,5.91 10.2,9.38c-28.27,0.22 -55.17,0.3 -82.06,0.38c2.02,-5.31 4.05,-10.64 6.19,-16.3c2.38,-0.55 5.29,-1.24 8.83,-2.19z" fill="#F6F8CA" id="svg_108" opacity="1"/>
   <path d="m604.73,784.47c2.79,-1.04 5.59,-2.91 8.4,-2.94c24.15,-0.23 48.32,-0.42 72.45,0.15c4.03,0.1 9.01,3.16 11.67,6.28c4.42,5.19 7.31,11.55 10.32,17.85c-2.47,-1.22 -4.42,-2.87 -6.36,-4.47c-0.02,0.03 0.07,0.03 0,-0.52c-1.23,-1.87 -2.37,-3.21 -3.52,-4.49c0,0.05 0.09,0 0,-0.62c-2.65,-8.72 -7.89,-11.44 -17.12,-11.22c-25.26,0.65 -50.56,0.07 -75.84,-0.02z" fill="#294845" id="svg_109" opacity="1"/>
   <path d="m604.17,784.73c25.83,-0.18 51.14,0.4 76.4,-0.25c9.24,-0.22 14.48,2.5 16.47,11.2c-6.45,-7.7 -15,-8.11 -24.52,-7.78c-16.9,0.58 -33.84,0.15 -50.76,0.17c-8.15,0.02 -17.11,-1.97 -21.45,7.78c-0.21,0.47 -1.59,0.48 -2.51,0.65c-0.07,-0.07 -0.23,-0.2 -0.23,-0.2c2.02,-3.76 4.03,-7.53 6.59,-11.57z" fill="#F2FCD5" id="svg_110" opacity="1"/>
   <path d="m498.33,320.95c-6.7,-5.18 -13.18,-9.4 -22.57,-8.55c-2.26,-5.13 -3.82,-10.35 -6.03,-17.77c7.36,1.27 12.2,2.1 17.4,3.51c0.02,1.77 -0.93,3.21 -0.54,4.11c3.86,8.82 11.57,13.93 19.89,18.42c0.19,0.1 0.4,0.53 0.39,0.57c-0.4,0.33 -0.84,0.62 -1.75,0.97c-2.4,-0.33 -4.31,-0.73 -6.78,-1.25z" fill="#F2FCD5" id="svg_111" opacity="1"/>
   <path d="m193.63,781.51c-0.14,-5.19 0.4,-10.45 0.93,-16.33c-0.02,-0.62 0.11,-1.37 0.19,-1.75c6.96,0 13.83,0.37 21.29,1.25c0.61,0.52 0.53,0.55 0.04,0.5c-0.16,0.42 0.18,0.88 0.51,1.35c-5.31,7.85 -11.81,14.06 -22.96,14.98z" fill="#78C9C0" id="svg_112" opacity="1"/>
   <path d="m333.75,236.88c0.58,-7.73 -3.12,-10.39 -11.5,-9.97c-19.4,0.97 -38.84,1.14 -58.24,1.95c-2.14,0.1 -4.17,2.39 -6.29,4.37c-2.89,-1.54 -5.75,-3.77 -10.39,-7.45c31.21,0 59.75,0 89.42,0c-0.82,3.74 -1.61,7.25 -3,11.09z" fill="#F2FCD5" id="svg_113" opacity="1"/>
   <path d="m471.69,797.46c-0.95,0.23 -2.77,0.1 -2.96,-0.52c-3.21,-9.97 -11.64,-8.97 -19.81,-8.9c-14,0.12 -28.02,-0.07 -42.05,0.1c-3.72,0.05 -7.43,0.92 -11.81,0.72c1.61,-1.84 3.87,-3.94 6.19,-3.97c21.07,-0.35 42.15,-0.33 63.24,-0.43c2.35,4.12 4.71,8.27 7.2,13.01z" fill="#F2FCD5" id="svg_114" opacity="1"/>
   <path d="m575.48,820.13c48.02,-0.5 96.5,-0.45 145.79,-0.47c-1.28,0.55 -3.38,1.72 -5.49,1.72c-45.2,0.1 -90.42,0.08 -135.62,0.05c-1.42,0 -2.82,-0.5 -4.68,-1.3z" fill="#294845" id="svg_115" opacity="1"/>
   <path d="m527.93,366.13c5.43,4.11 11.51,8.38 16.46,13.63c3.37,3.56 5.14,8.48 7.69,13.37c-2.94,0.67 -5.94,0.77 -9.69,0.94c-5.26,-9.1 -9.8,-18.23 -14.46,-27.93z" fill="#E5B953" id="svg_116" opacity="1"/>
   <path d="m211.12,502c-0.56,-31.73 -0.67,-63.98 -0.81,-97.03c0.58,-0.27 1.75,0.23 1.75,0.73c-0.11,31.91 -0.3,63.83 -0.95,96.29z" fill="#294845" id="svg_117" opacity="1"/>
   <path d="m316.81,285.58c2.07,-0.77 4.45,-1.12 5.7,-1.3c1.89,-10.37 3.7,-20.29 6.13,-30.36c-0.09,12.84 -0.81,25.81 -1.56,39.34c-3.42,-2.49 -6.68,-4.88 -10.27,-7.68z" fill="#F2FCD5" id="svg_118" opacity="1"/>
   <path d="m463.92,784.02c-20.52,0.53 -41.61,0.52 -62.68,0.87c-2.31,0.03 -4.57,2.14 -6.94,4.01c-0.07,0.73 0.02,0.77 -0.51,0.95c-1.86,1.79 -3.17,3.41 -4.59,4.96c-0.07,-0.08 -0.23,-0.22 -0.23,-0.22c0.77,-8.17 4.5,-12.09 14.04,-11.72c20.09,0.8 40.22,0.55 60.9,1.15z" fill="#294845" id="svg_119" opacity="1"/>
   <path d="m203.97,820.5c26.32,-0.53 53.23,-0.62 80.94,-0.57c-0.21,0.57 -1.24,1.42 -2.26,1.42c-26.04,-0.08 -52.09,-0.27 -78.68,-0.85z" fill="#294845" id="svg_120" opacity="1"/>
   <path d="m147.13,490.44c-11.62,0.55 -23.35,0.47 -35.86,0.27c-0.63,-0.63 -0.47,-1.57 -0.23,-1.59c12.04,-1.29 24.13,-5.08 36.09,1.32z" fill="#294845" id="svg_121" opacity="1"/>
   <path d="m689.12,761.49c1.59,-10.65 3.56,-21.04 6.08,-31.73c-1.52,10.47 -3.63,21.24 -6.08,31.73z" fill="#294845" id="svg_122" opacity="1"/>
   <path d="m275.32,249.33c4.45,3.04 9.15,6.58 13.88,10.74c-4.54,-3.01 -9.1,-6.61 -13.88,-10.74z" fill="#F2FCD5" id="svg_123" opacity="1"/>
   <path d="m261.23,237.59c4.49,3.01 9.24,6.53 13.95,10.67c-4.57,-2.97 -9.15,-6.55 -13.95,-10.67z" fill="#F2FCD5" id="svg_124" opacity="1"/>
   <path d="m586.44,810.5c2.38,-3.42 5,-6.51 8.29,-9.63c0.68,-0.03 1.26,0.57 1.19,1.15c-2.94,3.54 -5.82,6.5 -8.69,9.45c0,0 -0.54,-0.63 -0.79,-0.97z" fill="#F2FCD5" id="svg_125" opacity="1"/>
   <path d="m701.23,801.28c1.93,1.65 3.87,3.31 6.33,5.16c0.53,0.77 0.79,1.22 1.81,2.14c0.54,1.34 0.6,2.05 0.65,2.76c0,0 -0.14,0.12 -0.81,0.08c-3.1,-3.39 -5.54,-6.76 -7.97,-10.14z" fill="#F2FCD5" id="svg_126" opacity="1"/>
   <path d="m383.93,803.32c1.28,-2.81 2.56,-5.61 4.45,-8.58c0.6,-0.15 0.75,-0.02 0.75,0.63c-0.63,2.44 -1.28,4.21 -1.93,5.98c0,0 0.14,0.03 -0.37,0.15c-1.3,0.67 -2.1,1.24 -2.91,1.82z" fill="#294845" id="svg_127" opacity="1"/>
   <path d="m301.52,272.66c2.14,0.8 4.5,2.14 6.94,4.07c-2.19,-0.77 -4.43,-2.15 -6.94,-4.07z" fill="#F2FCD5" id="svg_128" opacity="1"/>
   <path d="m230.79,789.81c-0.81,2 -2.16,4.24 -4.15,6.5c0.77,-2.07 2.19,-4.17 4.15,-6.5z" fill="#F6F8CA" id="svg_129" opacity="1"/>
   <path d="m225.49,796.34c-1.35,1.64 -3.26,3.34 -5.85,5.03c1.31,-1.67 3.29,-3.31 5.85,-5.03z" fill="#F6F8CA" id="svg_130" opacity="1"/>
   <path d="m478.65,805.81c-1.74,-1.3 -3.54,-3.17 -5.35,-5.68c1.77,1.29 3.51,3.19 5.35,5.68z" fill="#F2FCD5" id="svg_131" opacity="1"/>
   <path d="m721.85,816.11c-1.98,-0.25 -4.19,-1.05 -6.66,-2.4c1.96,0.27 4.19,1.05 6.66,2.4z" fill="#294845" id="svg_132" opacity="1"/>
   <path d="m372.96,813.15c-1.33,1.12 -3.31,2.22 -5.91,3.41c1.35,-1.09 3.31,-2.25 5.91,-3.41z" fill="#294845" id="svg_133" opacity="1"/>
   <path d="m483.76,810.88c-1.59,-0.78 -3.38,-2.05 -5.15,-3.96c1.67,0.72 3.31,2.09 5.15,3.96z" fill="#F2FCD5" id="svg_134" opacity="1"/>
   <path d="m312,280.96c1.4,0.52 3,1.5 4.26,3.07c-1.59,-0.48 -2.84,-1.55 -4.26,-3.07z" fill="#F2FCD5" id="svg_135" opacity="1"/>
   <path d="m383.86,803.64c0.88,-0.9 1.68,-1.47 2.96,-2.2c-0.54,1.32 -1.58,2.82 -3.21,3.97c-0.33,-0.72 -0.07,-1.07 0.25,-1.77z" fill="#F2FCD5" id="svg_136" opacity="1"/>
   <path d="m270.1,804.17c-1.12,-0.77 -2.37,-2.07 -3.59,-4.01c1.17,0.73 2.33,2.1 3.59,4.01z" fill="#F6F8CA" id="svg_137" opacity="1"/>
   <path d="m290.88,262.71c1.09,0.22 2.28,1.02 3.54,2.39c-1.09,-0.22 -2.26,-1.02 -3.54,-2.39z" fill="#F2FCD5" id="svg_138" opacity="1"/>
   <path d="m710.58,811.38c-0.61,-0.75 -0.67,-1.47 -0.82,-2.7c1.1,0.27 2.3,1.05 3.54,2.42c-0.68,0.5 -1.42,0.42 -2.72,0.28z" fill="#294845" id="svg_139" opacity="1"/>
   <path d="m518.98,357.85c0.96,0.23 2.14,0.88 3.38,2.09c-1.02,-0.18 -2.09,-0.92 -3.38,-2.09z" fill="#E5B953" id="svg_140" opacity="1"/>
   <path d="m595.18,800.5c0.32,-1.49 0.88,-2.65 1.93,-4.01c0.47,-0.18 0.63,-0.05 0.67,0.57c-0.58,1.87 -1.19,3.12 -1.79,4.37c0,0 -0.58,-0.6 -0.81,-0.94z" fill="#F2FCD5" id="svg_141" opacity="1"/>
   <path d="m664.22,371.77c-0.67,0.5 -1.51,0.52 -2.98,0.47c0.53,-0.35 1.67,-0.65 2.98,-0.47z" fill="#C9F8F1" id="svg_142" opacity="1"/>
   <path d="m446.77,473.73c-0.81,0.27 -1.75,0.03 -3.01,-0.6c0.75,-0.22 1.81,-0.07 3.01,0.6z" fill="#7CCEC7" id="svg_143" opacity="1"/>
   <path d="m216.68,766.2c-0.42,-0.13 -0.75,-0.6 -0.63,-0.99c0.46,0.07 0.74,0.67 0.63,0.99z" fill="#7CCEC7" id="svg_144" opacity="1"/>
   <path d="m969.41,56.89c-12.44,10.54 -24.77,21.26 -37.42,31.56c-6.15,4.99 -10.48,9.7 -10.31,18.52c0.68,32.51 0.28,65.05 0.28,97.58c0,2.62 0,5.26 0,7.9c-0.61,0.13 -1.23,0.27 -1.84,0.42c-10.38,-27.8 -20.77,-55.6 -31.58,-84.57c-12.23,9.18 -23.96,18 -35.7,26.8c-8.27,6.21 -18.88,7.08 -26.27,1.42c13.14,-11.96 26.54,-23.18 39.91,-34.43c14.06,-11.86 28.04,-23.78 42.12,-35.6c12.78,-10.74 25.54,-21.47 38.51,-31.99c7.66,-6.23 15.69,-12.02 23.68,-17.27c-0.37,7.06 -0.86,13.36 -1.37,19.67z" fill="#C9F6F1" id="svg_145" opacity="1"/>
   <path d="m970.64,36.47c-7.85,5.99 -15.88,11.79 -23.54,18.02c-12.97,10.52 -25.73,21.26 -38.51,31.99c-14.07,11.82 -28.06,23.74 -42.12,35.6c-13.37,11.25 -26.76,22.47 -40.54,34.13c-6.59,-3.96 -7.96,-8.67 -1.58,-14.04c20.45,-17.22 40.96,-34.36 61.27,-51.73c14.44,-12.34 28.45,-25.18 42.99,-37.42c8.76,-7.35 17.72,-14.71 27.53,-20.62c4.82,-2.91 11.81,-2.54 17.6,-2.81c-1.21,2.86 -2.16,4.86 -3.12,6.88z" fill="#FDFFFE" id="svg_146" opacity="1"/>
   <path d="m795.88,34.9c26.22,9.63 52.46,19.25 80.03,29.37c-9.97,7.96 -19.05,15.21 -28.13,22.44c-17.72,-16.81 -35.09,-33.29 -52.49,-50.48c0.18,-0.92 0.39,-1.12 0.6,-1.34z" fill="#C9F6F1" id="svg_147" opacity="1"/>
   <path d="m970.78,37.22c0.82,-2.77 1.77,-4.78 3.29,-7.01c6.48,8.7 5.22,16.78 -4.1,26.42c-0.05,-6.04 0.44,-12.34 0.81,-19.4z" fill="#99E7DA" id="svg_148" opacity="1"/>
   <path d="m794.9,35.81c-0.82,-0.5 -1.3,-1.29 -1.79,-2.09c0.79,0.1 1.59,0.18 2.58,0.73c-0.02,0.67 -0.23,0.87 -0.79,1.35z" fill="#C9F6F1" id="svg_149" opacity="1"/>
   <path d="m336.58,754.01c0,3.82 -0.82,7.26 0.12,10.2c2.4,7.48 -0.74,9.45 -7.97,8.92c-3.42,-0.25 -6.91,0.35 -10.88,1.04c-5.15,-2.45 -9.8,-5.38 -14.06,-9.27c0.07,-5.18 -0.23,-9.38 -0.53,-13.59c2.94,-8.35 10.27,-10.19 18.02,-9.78c7.57,0.38 14.23,3.21 15.3,12.49z" fill="#CAEDE7" id="svg_150" opacity="1"/>
   <path d="m302.75,751.74c0.81,3.77 1.1,7.98 0.95,12.57c-0.77,-3.77 -1.1,-7.95 -0.95,-12.57z" fill="#D2EEE8" id="svg_151" opacity="1"/>
   <path d="m387.84,801.3c0.02,-1.72 0.67,-3.49 1.38,-5.84c1.4,-2.2 2.72,-3.82 4.57,-5.66c-1.44,3.67 -3.38,7.56 -5.96,11.5z" fill="#F2FCD5" id="svg_152" opacity="1"/>
   <path d="m595.92,802.02c0.67,-1.84 1.28,-3.09 1.93,-4.89c0.88,-0.78 2.26,-0.8 2.47,-1.27c4.35,-9.75 13.3,-7.76 21.45,-7.78c16.91,-0.02 33.86,0.42 50.76,-0.17c9.52,-0.33 18.07,0.08 24.61,8.4c0.65,0.02 0.56,0.07 0.54,0.63c1.19,1.85 2.4,3.14 3.61,4.42c0,0 -0.09,0 -0.07,-0.03c2.45,3.32 4.89,6.7 7.92,10.15c-1.07,1.72 -2.75,4.74 -4.43,4.76c-37.58,0.27 -75.15,0.25 -112.73,0.05c-1.58,-0.02 -3.14,-2.25 -4.73,-4.14c2.86,-3.64 5.73,-6.6 8.68,-10.14z" fill="#FEF7B2" id="svg_153" opacity="1"/>
   <path d="m701.22,800.81c-1.14,-0.73 -2.35,-2.02 -3.54,-3.92c1.17,0.72 2.31,2.05 3.54,3.92z" fill="#F2FCD5" id="svg_154" opacity="1"/>
  </g>
 </g>
</svg>